<?xml version="1.0" encoding="UTF-8" standalone="no"?>
<!-- Created with Inkscape (http://www.inkscape.org/) -->

<svg
   xmlns:dc="http://purl.org/dc/elements/1.1/"
   xmlns:cc="http://creativecommons.org/ns#"
   xmlns:rdf="http://www.w3.org/1999/02/22-rdf-syntax-ns#"
   xmlns:svg="http://www.w3.org/2000/svg"
   xmlns="http://www.w3.org/2000/svg"
   xmlns:sodipodi="http://sodipodi.sourceforge.net/DTD/sodipodi-0.dtd"
   xmlns:inkscape="http://www.inkscape.org/namespaces/inkscape"
   width="213.84888mm"
   height="228.62094mm"
   viewBox="0 0 213.84888 228.62094"
   version="1.1"
   id="svg3891"
   sodipodi:docname="NoUndoNoSurrenderWithBg.svg"
   inkscape:version="0.91 r13725"
   inkscape:export-filename="C:\Temp\NoUndoNoSurrender.png"
   inkscape:export-xdpi="300.01077"
   inkscape:export-ydpi="300.01077">
  <defs
     id="defs3885" />
  <sodipodi:namedview
     id="base"
     pagecolor="#da5050"
     bordercolor="#666666"
     borderopacity="1.0"
     inkscape:pageopacity="0"
     inkscape:pageshadow="2"
     inkscape:zoom="0.43521137"
     inkscape:cx="562.01955"
     inkscape:cy="432.08525"
     inkscape:document-units="mm"
     inkscape:current-layer="layer1"
     showgrid="false"
     inkscape:window-width="1280"
     inkscape:window-height="657"
     inkscape:window-x="-8"
     inkscape:window-y="-8"
     inkscape:window-maximized="1"
     fit-margin-top="0"
     fit-margin-left="0"
     fit-margin-right="0"
     fit-margin-bottom="0" />
  <metadata
     id="metadata3888">
    <rdf:RDF>
      <cc:Work
         rdf:about="">
        <dc:format>image/svg+xml</dc:format>
        <dc:type
           rdf:resource="http://purl.org/dc/dcmitype/StillImage" />
        <dc:title></dc:title>
      </cc:Work>
    </rdf:RDF>
  </metadata>
  <g
     inkscape:groupmode="layer"
     id="layer2"
     inkscape:label="Layer 2"
     transform="translate(1.9244435,-34.189528)" />
  <g
     inkscape:label="Layer 1"
     inkscape:groupmode="layer"
     id="layer1"
     style="opacity:1"
     transform="translate(1.9244435,-34.189528)">
    <g
       aria-label="NO SURRENDER"
       style="font-style:normal;font-weight:normal;font-size:26.03245735px;line-height:1.25;font-family:sans-serif;letter-spacing:0px;word-spacing:0px;fill:#000000;fill-opacity:1;stroke:none;stroke-width:0.65081137"
       id="text188" />
    <g
       id="g4187"
       transform="translate(-326.47954,-0.11991755)">
      <path
         style="fill:#ffffff;fill-rule:evenodd;stroke:#ffffff;stroke-width:0.28222221px;stroke-linecap:butt;stroke-linejoin:miter;stroke-opacity:1"
         d="m 487.34621,190.5619 c -5.24127,0.40318 -88.69842,4.03175 -88.69842,4.03175 l 14.91746,-11.28889 -2.82222,-29.43174 -20.96508,-6.85397 -14.11111,-17.73969 -3.62857,-39.107933 4.83809,-27.819047 15.72381,-13.707937 c 0,0 21.36826,-1.612697 22.98096,0 1.61269,1.612699 43.13968,17.336508 43.13968,17.336508 l -4.03175,64.104759 z"
         id="path4170"
         inkscape:connector-curvature="0"
         sodipodi:nodetypes="cccccccccsccc" />
      <path
         style="fill:#ffffff;fill-rule:evenodd;stroke:none;stroke-width:0.28222221px;stroke-linecap:butt;stroke-linejoin:miter;stroke-opacity:1"
         d="m 495.55931,188.06863 c -3.14099,10.12381 22.45797,38.70387 33.2835,42.14026 l -191.71861,18.95518 3.62857,-35.88254 35.47936,-1.20952 12.24723,-1.28045 11.28889,-19.75555 58.86349,-12.49842 z"
         id="path4172"
         inkscape:connector-curvature="0"
         sodipodi:nodetypes="ccccccccc" />
      <path
         style="fill:#ffffff;fill-rule:evenodd;stroke:none;stroke-width:0.28222221px;stroke-linecap:butt;stroke-linejoin:miter;stroke-opacity:1"
         d="m 386.76994,190.99422 c -3.9845,4.62938 -7.24631,7.38689 -13.1149,8.09167 -7.80505,4.26127 4.80043,10.15643 6.04355,15.26331 l 20.96508,-2.41904 z"
         id="path4174"
         inkscape:connector-curvature="0"
         sodipodi:nodetypes="ccccc" />
      <g
         transform="translate(326.47954,0)"
         id="g4176"
         style="font-style:normal;font-weight:normal;font-size:26.03245735px;line-height:1.25;font-family:sans-serif;letter-spacing:0px;word-spacing:0px;fill:#000000;fill-opacity:1;stroke:#ffffff;stroke-width:10;stroke-linejoin:round;stroke-miterlimit:4;stroke-dasharray:none;stroke-opacity:1"
         aria-label="NO UNDO">
        <path
           d="m 133.96538,203.96112 0.12712,0 q 1.20756,0 2.44054,2.32615 l 0.12711,0.12711 0,0.572 q 0,0.54658 -1.83041,0.94063 l 0,0.1144 q 2.80917,3.48285 2.80917,6.52082 l 0,0.58472 q 0,7.525 -6.48269,9.67319 -2.21174,0.58471 -3.66082,0.58471 l -1.34738,0 q -5.6946,0 -8.1987,-5.82171 -0.35591,-0.0763 -0.48302,-2.09734 l 0,-0.82623 q 0,-5.64375 8.18599,-10.24519 5.17344,-2.45326 8.31309,-2.45326 z m -11.97391,13.75348 0,0.1144 q 0,2.02107 2.56766,2.32614 l 0.97875,0 q 3.95318,0 7.33434,-4.53788 0.52116,-1.19485 0.72454,-3.15237 -0.1144,-1.62703 -0.35591,-1.98294 l 0.1144,-0.3432 q -0.33049,-1.75414 -0.48303,-1.75414 -3.59725,0.48302 -8.31309,4.66499 -2.56766,2.49139 -2.56766,4.665 z m -13.2069,-13.10521 0.55929,0 q 4.35993,0 8.13514,2.64392 1.53806,1.48721 1.53806,2.86002 0,3.10152 -6.4827,9.4571 -3.40659,2.5041 -6.82589,3.96588 -3.91504,1.14401 -4.84295,1.86854 l -1.207563,-0.1144 q -2.046497,0.99147 -2.529521,0.99147 l -0.1144,-0.1144 0.33049,-0.54658 -0.101689,0 -0.660981,0.21609 -0.1144,-0.66098 0.21609,-0.43218 -0.10169,0 -0.54658,0.21609 -0.1144,-0.1144 0,-0.10169 0.1144,-0.33049 -0.1144,0 -0.444891,0.1144 q -0.33049,0 -0.33049,-0.44489 -0.54658,-0.0763 -0.54658,-0.33049 0.483024,-0.52116 1.436361,-0.87707 1.881252,-1.43636 5.160734,-9.02492 1.98294,-4.56331 1.98294,-5.17345 -1.99565,0 -3.0761,-2.63121 0,-0.92791 8.68172,-1.43636 z m -4.83024,14.74495 q 9.3427,-4.35993 9.3427,-8.24954 0,-2.55495 -4.06757,-3.19051 -0.81351,0 -1.20756,1.97023 z m -6.622513,-15.44406 0.800803,0 q 1.525339,0 2.51681,1.3728 l 0,0.34321 -4.347217,11.19853 q -1.601607,2.9617 -3.203213,8.35123 l -0.343201,0.3432 -0.343202,0 -0.457601,-0.3432 -0.114401,0.1144 -0.572002,0 -0.572002,-0.3432 -1.144005,0.1144 -0.915203,-1.0296 0,-0.80081 q 0,-0.50844 0.800803,-2.40241 l -2.961701,-7.08011 -0.915203,-2.74561 -0.114401,0 -4.576018,9.59692 q -0.800803,1.63974 -1.144004,3.77522 l 0.1144,0.1144 0,0.1144 q -0.190667,0.9152 -0.457602,0.9152 l -0.343201,0 -1.144004,-0.6864 -0.228801,0 -0.457602,0.1144 -0.343201,-0.1144 -0.228801,0.2288 -0.114401,-0.1144 -0.1144,0 -0.114401,0.1144 -1.029604,-1.3728 0,-0.45761 q 0,-2.0592 5.376821,-12.57133 l 2.745611,-5.83443 q 0.622847,-0.49573 3.876904,-0.6864 0.775381,0 1.601606,1.144 l 0,0.1144 q 0,3.24135 2.974412,9.59693 1.601606,-2.74561 3.546414,-9.36812 0.394046,-1.48721 1.372805,-1.48721 0,-0.20338 0.572003,-0.2288 z m -31.777901,0.0763 0.559291,0 q 1.766852,0 2.885434,1.88125 l 0.101689,0.44489 q 0,0.92791 -2.440543,5.55478 -2.554943,5.0209 -2.554943,9.20288 l 0,0.33049 q 2.872722,-1.86854 4.664996,-4.5506 4.220105,-5.37682 4.995486,-7.76652 l 0.66098,-1.43636 q 0.330491,0 0.330491,-0.33049 l 0.1144,-0.1144 0.228801,0 0,0.44489 0.101689,0 q 0.305068,-1.88125 0.559291,-1.88125 l 0.114401,0 0,0.44489 0.101689,0 0,-0.88978 0.228801,0 0,0.33049 q 0.394046,-0.20338 0.99147,-1.66516 l 0.114401,0 q 1.105871,1.0296 1.105871,3.21592 0,7.32163 -9.41897,16.63891 -1.804985,1.11858 -4.105705,1.11858 -4.258239,0 -5.669178,-3.11423 l -0.21609,-1.33467 0,-0.54658 q 0,-4.37264 1.779563,-7.76652 l 2.885433,-6.77505 q 0.940626,-1.43636 1.881252,-1.43636 z m -16.753309,-0.0254 0.127111,0 q 1.207561,0 2.440543,2.32615 l 0.127112,0.12711 0,0.572 q 0,0.54658 -1.830407,0.94063 l 0,0.1144 q 2.809166,3.48285 2.809166,6.52082 l 0,0.58472 q 0,7.525 -6.482692,9.67319 -2.211742,0.58471 -3.660814,0.58471 l -1.347383,0 q -5.6946,0 -8.198699,-5.82171 -0.355912,-0.0763 -0.483024,-2.09734 l 0,-0.82623 q 0,-5.64375 8.185987,-10.24519 5.173443,-2.45326 8.3131,-2.45326 z m -11.973914,13.75348 0,0.1144 q 0,2.02107 2.567655,2.32614 l 0.978759,0 q 3.953171,0 7.33434,-4.53788 0.521157,-1.19485 0.724536,-3.15237 -0.1144,-1.62703 -0.355912,-1.98294 l 0.1144,-0.3432 q -0.33049,-1.75414 -0.483024,-1.75414 -3.597259,0.48302 -8.313099,4.66499 -2.567655,2.49139 -2.567655,4.665 z m -5.338687,-13.80432 0.800803,0 q 1.525339,0 2.516809,1.3728 l 0,0.34321 -4.347217,11.19853 q -1.601606,2.9617 -3.203212,8.35123 l -0.343201,0.3432 -0.343202,0 -0.457602,-0.3432 -0.1144,0.1144 -0.572002,0 -0.572002,-0.3432 -1.144005,0.1144 -0.915203,-1.0296 0,-0.80081 q 0,-0.50844 0.800803,-2.40241 l -2.961701,-7.08011 -0.915203,-2.74561 -0.114401,0 -4.576018,9.59692 q -0.800803,1.63974 -1.144004,3.77522 l 0.1144,0.1144 0,0.1144 q -0.190667,0.9152 -0.457602,0.9152 l -0.343201,0 -1.144004,-0.6864 -0.228801,0 -0.457602,0.1144 -0.343201,-0.1144 -0.228801,0.2288 -0.114401,-0.1144 -0.1144,0 -0.114401,0.1144 -1.0296037,-1.3728 0,-0.45761 q 0,-2.0592 5.3768207,-12.57133 l 2.745611,-5.83443 q 0.622847,-0.49573 3.876904,-0.6864 0.775381,0 1.601606,1.144 l 0,0.1144 q 0,3.24135 2.974412,9.59693 1.601606,-2.74561 3.546414,-9.36812 0.394046,-1.48721 1.372805,-1.48721 0,-0.20338 0.572003,-0.2288 z m 165.585284,30.86005 0.99147,0 q 7.41061,0 8.74528,4.86837 l 0.1144,0.67369 0,0.33049 q 0,1.46179 -6.64794,4.86838 1.66517,7.05469 1.66517,9.85115 l 0.1144,0.1144 0,0.10169 -0.1144,0.3432 0.1144,0.99147 -0.1144,0.1144 -0.21609,0 q 0,-0.44489 -0.2288,-0.44489 0,0.33049 -0.21609,0.33049 l -0.22881,0 -0.10168,-0.1144 -0.1144,0 q -0.16525,0.44489 -0.33049,0.44489 l -0.5593,-0.1144 -0.21609,0.2288 q -0.0763,-0.55929 -0.55929,-0.55929 -1.76685,-4.11842 -3.08881,-9.52066 l -4.98277,1.66516 q -0.68641,1.56347 -1.10587,1.76685 l -0.11441,0.55929 -0.33049,0 0.4449,-1.22027 0,-0.1144 -0.11441,0 -0.55929,1.22027 0.2288,0.2288 q -0.41946,0 -1.66516,2.31344 -0.15253,0.0127 -0.66098,1.44907 -0.2288,0 -1.10587,2.21174 l -0.1144,0 q 0,-0.50845 -1.10587,-0.88978 l -0.21609,0.2288 q 0,-0.2288 -0.3432,-0.2288 l -0.33049,0.1144 q -0.24151,-0.59743 -0.66098,-0.66098 l 0,-0.3432 q 0,-2.68206 6.08864,-14.83393 -2.32614,-1.57618 -2.32614,-2.54223 l 0,-0.54658 q 0.089,-0.58471 4.093,-1.99565 0.55929,-0.88978 5.87255,-0.88978 z m -3.54641,8.74528 0.2288,0 q 6.64794,-2.8473 8.07159,-4.53789 l 0,-0.1144 -2.21175,-0.10169 -0.21609,0 q -4.20739,0 -4.20739,0.99147 -1.30925,3.34304 -1.66516,3.76251 z m -6.39371,-7.9699 q 0,0.43218 0.43218,0.43218 l 0,0.21609 -0.33049,0 0,0.1144 q 0.54658,0 0.54658,0.21609 l 0,0.1144 -0.43218,0 q 0,0.33049 0.64827,0.33049 l 0,0.21609 -0.33049,0 0,0.10169 1.30925,0 0.99147,0.54658 -0.1144,0.1144 0,0.10169 q 0.54658,0 0.54658,0.2288 0,0.39404 -4.04215,0.86436 -1.3728,0 -5.22429,1.52534 l -1.20756,2.40241 0.1144,0 q 0.58472,-0.21609 3.38117,-0.3305 l 0.21609,0.3305 -0.33049,0.1144 0,0.10168 q 0.87707,0 0.87707,0.21609 l -0.54658,0.22881 0,0.10168 0.21609,0 -0.10169,0.33049 q 0,0.54658 0.86436,0.87708 l 0,0.10168 -0.10169,0.1144 0,0.10169 q 0.54658,0 0.54658,0.2288 l 0,0.10169 q 0,0.33049 -6.87674,1.74143 -0.85164,0 -2.18632,3.27948 l 7.8555,-1.30925 0,0.21609 0.1144,0 0.54658,-0.1144 q 0.13983,0.54658 0.54658,0.54658 l 0,0.33049 q -0.26693,0 -0.54658,0.33049 l -0.2288,0 0,0.10169 0.66098,0 0,0.2288 -0.54658,0 0.1144,0.10169 0,0.1144 -0.1144,0.10169 q 1.61432,0 1.74143,0.54658 l -0.10169,0.1144 q 0.54658,0.0763 0.54658,0.33049 -0.96605,0.62285 -6.54625,1.62703 -6.54624,1.10587 -6.54624,1.97023 -0.15254,0.572 -0.97876,0.97876 l -0.1144,0 -0.64827,-0.54658 -0.2288,0 -0.54658,0.1144 q 0,-0.27964 -1.08045,-0.54658 l -0.33049,0.10169 -0.1144,-0.10169 0,-0.1144 0.1144,-0.33049 -0.21609,0 -0.1144,0.1144 -0.10169,0 -0.1144,-0.1144 0,-0.10169 q 0.90249,-3.24134 8.07158,-18.32949 0,-1.09316 1.52534,-1.30925 l 4.25824,0.1144 z m -23.63005,0.21609 0.55929,0 q 4.35993,0 8.13514,2.64392 1.53805,1.4872 1.53805,2.86001 0,3.10152 -6.48269,9.4571 -3.40659,2.5041 -6.82589,3.96589 -3.91504,1.144 -4.84295,1.86854 l -1.20756,-0.1144 q -2.0465,0.99147 -2.52953,0.99147 l -0.1144,-0.1144 0.33049,-0.54658 -0.10168,0 -0.66098,0.21609 -0.11441,-0.66098 0.21609,-0.43218 -0.10168,0 -0.54658,0.21609 -0.11441,-0.1144 0,-0.10169 0.11441,-0.33049 -0.11441,0 -0.44489,0.1144 q -0.33049,0 -0.33049,-0.44489 -0.54658,-0.0763 -0.54658,-0.33049 0.48303,-0.52116 1.43637,-0.87707 1.88125,-1.43637 5.16073,-9.02493 1.98294,-4.56331 1.98294,-5.17344 -1.99565,0 -3.0761,-2.63121 0,-0.92792 8.68172,-1.43636 z m -4.83024,14.74494 q 9.3427,-4.35992 9.3427,-8.24954 0,-2.55494 -4.06757,-3.1905 -0.81351,0 -1.20756,1.97023 z m -6.62251,-15.44406 0.8008,0 q 1.52534,0 2.51681,1.37281 l 0,0.3432 -4.34722,11.19853 q -1.6016,2.9617 -3.20321,8.35124 l -0.3432,0.3432 -0.3432,0 -0.45761,-0.3432 -0.1144,0.1144 -0.572,0 -0.572,-0.34321 -1.14401,0.11441 -0.9152,-1.02961 0,-0.8008 q 0,-0.50845 0.8008,-2.40241 l -2.9617,-7.08012 -0.9152,-2.74561 -0.1144,0 -4.57602,9.59693 q -0.8008,1.63974 -1.144,3.77521 l 0.1144,0.1144 0,0.1144 q -0.19067,0.91521 -0.4576,0.91521 l -0.34321,0 -1.144,-0.68641 -0.2288,0 -0.4576,0.1144 -0.3432,-0.1144 -0.2288,0.22881 -0.1144,-0.11441 -0.11441,0 -0.1144,0.11441 -1.0296,-1.37281 0,-0.4576 q 0,-2.05921 5.37682,-12.57134 l 2.74561,-5.83442 q 0.62285,-0.49574 3.87691,-0.68641 0.77538,0 1.6016,1.14401 l 0,0.1144 q 0,3.24135 2.97441,9.59693 1.60161,-2.74561 3.54642,-9.36813 0.39404,-1.48721 1.3728,-1.48721 0,-0.20337 0.57201,-0.2288 z m -18.66,0.48303 q 0,0.43218 0.43218,0.43218 l 0,0.21609 -0.33049,0 0,0.1144 q 0.54658,0 0.54658,0.21609 l 0,0.1144 -0.43218,0 q 0,0.33049 0.64827,0.33049 l 0,0.21609 -0.33049,0 0,0.10169 1.30925,0 0.99147,0.54658 -0.1144,0.1144 0,0.10169 q 0.54658,0 0.54658,0.2288 0,0.39404 -4.04215,0.86436 -1.3728,0 -5.22428,1.52534 l -1.20756,2.40241 0.1144,0 q 0.58471,-0.21609 3.38116,-0.3305 l 0.21609,0.3305 -0.33049,0.1144 0,0.10168 q 0.87707,0 0.87707,0.21609 l -0.54658,0.22881 0,0.10168 0.21609,0 -0.10169,0.33049 q 0,0.54658 0.86436,0.87708 l 0,0.10168 -0.10169,0.1144 0,0.10169 q 0.54658,0 0.54658,0.2288 l 0,0.10169 q 0,0.33049 -6.87673,1.74143 -0.85165,0 -2.18632,3.27948 l 7.85549,-1.30925 0,0.21609 0.1144,0 0.54658,-0.1144 q 0.13983,0.54658 0.54658,0.54658 l 0,0.33049 q -0.26693,0 -0.54658,0.33049 l -0.2288,0 0,0.10169 0.66098,0 0,0.2288 -0.54658,0 0.1144,0.10169 0,0.1144 -0.1144,0.10169 q 1.61432,0 1.74143,0.54658 l -0.10169,0.1144 q 0.54658,0.0763 0.54658,0.33049 -0.96604,0.62285 -6.54624,1.62703 -6.54625,1.10587 -6.54625,1.97023 -0.15254,0.572 -0.97876,0.97876 l -0.1144,0 -0.64827,-0.54658 -0.2288,0 -0.54658,0.1144 q 0,-0.27964 -1.08045,-0.54658 l -0.33049,0.10169 -0.1144,-0.10169 0,-0.1144 0.1144,-0.33049 -0.21609,0 -0.1144,0.1144 -0.10169,0 -0.1144,-0.1144 0,-0.10169 q 0.90249,-3.24134 8.07159,-18.32949 0,-1.09316 1.52534,-1.30925 l 4.25823,0.1144 z m -21.02425,-0.77538 0.99147,0 q 7.4106,0 8.74527,4.86837 l 0.11441,0.67369 0,0.33049 q 0,1.46179 -6.64794,4.86838 1.66516,7.05469 1.66516,9.85115 l 0.1144,0.1144 0,0.10169 -0.1144,0.3432 0.1144,0.99147 -0.1144,0.1144 -0.21609,0 q 0,-0.44489 -0.2288,-0.44489 0,0.33049 -0.21609,0.33049 l -0.2288,0 -0.10169,-0.1144 -0.1144,0 q -0.16525,0.44489 -0.33049,0.44489 l -0.55929,-0.1144 -0.21609,0.2288 q -0.0763,-0.55929 -0.55929,-0.55929 -1.76685,-4.11842 -3.08882,-9.52066 l -4.98277,1.66516 q -0.6864,1.56347 -1.10587,1.76685 l -0.1144,0.55929 -0.33049,0 0.44489,-1.22027 0,-0.1144 -0.1144,0 -0.55929,1.22027 0.2288,0.2288 q -0.41947,0 -1.66516,2.31344 -0.15254,0.0127 -0.66098,1.44907 -0.22881,0 -1.10588,2.21174 l -0.1144,0 q 0,-0.50845 -1.10587,-0.88978 l -0.216086,0.2288 q 0,-0.2288 -0.343202,-0.2288 l -0.33049,0.1144 q -0.241512,-0.59743 -0.66098,-0.66098 l 0,-0.3432 q 0,-2.68206 6.088648,-14.83393 -2.32614,-1.57618 -2.32614,-2.54223 l 0,-0.54658 q 0.089,-0.58471 4.09299,-1.99565 0.55929,-0.88978 5.87256,-0.88978 z m -3.54642,8.74528 0.2288,0 q 6.64794,-2.8473 8.07159,-4.53789 l 0,-0.1144 -2.21174,-0.10169 -0.21609,0 q -4.2074,0 -4.2074,0.99147 -1.30925,3.34304 -1.66516,3.76251 z m -12.774713,-8.74528 0.99147,0 q 7.410603,0 8.745283,4.86837 l 0.1144,0.67369 0,0.33049 q 0,1.46179 -6.647941,4.86838 1.665161,7.05469 1.665161,9.85115 l 0.1144,0.1144 0,0.10169 -0.1144,0.3432 0.1144,0.99147 -0.1144,0.1144 -0.21609,0 q 0,-0.44489 -0.2288,-0.44489 0,0.33049 -0.21609,0.33049 l -0.2288,0 -0.101689,-0.1144 -0.114401,0 q -0.165245,0.44489 -0.33049,0.44489 l -0.559291,-0.1144 -0.21609,0.2288 q -0.07627,-0.55929 -0.559291,-0.55929 -1.766851,-4.11842 -3.088812,-9.52066 l -4.982775,1.66516 q -0.686403,1.56347 -1.105871,1.76685 l -0.1144,0.55929 -0.330491,0 0.444891,-1.22027 0,-0.1144 -0.1144,0 -0.559292,1.22027 0.228801,0.2288 q -0.419468,0 -1.665162,2.31344 -0.152534,0.0127 -0.66098,1.44907 -0.228801,0 -1.105871,2.21174 l -0.114401,0 q 0,-0.50845 -1.105871,-0.88978 l -0.216089,0.2288 q 0,-0.2288 -0.343202,-0.2288 l -0.33049,0.1144 q -0.241512,-0.59743 -0.66098,-0.66098 l 0,-0.3432 q 0,-2.68206 6.088646,-14.83393 -2.326143,-1.57618 -2.326143,-2.54223 l 0,-0.54658 q 0.08898,-0.58471 4.092994,-1.99565 0.559291,-0.88978 5.872557,-0.88978 z m -3.546414,8.74528 0.228801,0 q 6.647937,-2.8473 8.071586,-4.53789 l 0,-0.1144 -2.211741,-0.10169 -0.21609,0 q -4.207394,0 -4.207394,0.99147 -1.30925,3.34304 -1.665162,3.76251 z m -19.511631,-8.37666 0.559292,0 q 1.766851,0 2.885433,1.88125 l 0.101689,0.44489 q 0,0.92792 -2.440543,5.55478 -2.554943,5.02091 -2.554943,9.20288 l 0,0.33049 q 2.872722,-1.86854 4.664996,-4.55059 4.220106,-5.37683 4.995486,-7.76652 l 0.660981,-1.43636 q 0.33049,0 0.33049,-0.3305 l 0.1144,-0.1144 0.228801,0 0,0.4449 0.10169,0 q 0.305067,-1.88126 0.559291,-1.88126 l 0.1144,0 0,0.44489 0.101689,0 0,-0.88978 0.228801,0 0,0.33049 q 0.394046,-0.20338 0.991471,-1.66516 l 0.1144,0 q 1.105871,1.0296 1.105871,3.21592 0,7.32163 -9.41897,16.63891 -1.804985,1.11859 -4.105705,1.11859 -4.258239,0 -5.669178,-3.11424 l -0.216089,-1.33467 0,-0.54658 q 0,-4.37264 1.779562,-7.76652 l 2.885434,-6.77505 q 0.940626,-1.43636 1.881251,-1.43636 z m -4.309085,-0.55929 0.241512,0 q 0.533869,0 1.42365,0.82623 l 0.114401,0.1144 0.1144,0 -0.1144,0.47031 0.1144,1.42365 q -0.190667,1.89396 -1.296538,1.89396 l -0.711825,0 q -4.626863,0 -11.579868,3.1905 l 0,0.2288 0.114401,0 q 8.592744,0.71183 9.457103,2.36428 0.826226,0.48302 0.826226,1.66516 -0.317779,3.88962 -0.940626,3.88962 -2.669344,1.99565 -5.91069,3.1905 -4.868375,1.66516 -13.35943,3.78792 l -0.1144,-0.1144 0,-0.12711 0.826225,-0.3432 0,-0.24151 -1.296538,0.24151 0,-0.12711 q 0,-0.26694 0.584713,-0.35591 l 0,-0.2288 -0.355912,0 0,-0.24152 0.241512,0 0,-0.1144 -0.711825,-0.24151 0.1144,-0.1144 0,-0.35591 q -0.470313,0 -0.470313,-0.35591 l -0.1144,0.1144 -0.241512,0 0,-0.1144 0.1144,-0.1144 0,-0.11441 -0.228801,0 q 0,-0.24151 -0.355912,-0.24151 l 0,-0.1144 q 0,-0.59742 9.571504,-3.31761 6.35558,-2.19903 7.334339,-2.94899 -10.054528,-0.66098 -10.054528,-2.13547 -1.182138,-0.76267 -1.182138,-2.23717 0,-1.36009 1.42365,-3.1905 8.64359,-5.91069 16.42282,-5.91069 z m -21.151371,21.03697 0,0.1144 0.241512,0 0,-0.1144 z m -5.071753,-20.5031 0.127111,0 q 1.207561,0 2.440543,2.32614 l 0.127112,0.12711 0,0.572 q 0,0.54658 -1.830407,0.94063 l 0,0.1144 q 2.809166,3.48286 2.809166,6.52083 l 0,0.58471 q 0,7.52501 -6.482692,9.67319 -2.211742,0.58472 -3.660814,0.58472 l -1.347383,0 q -5.6946,0 -8.198699,-5.82171 -0.355912,-0.0763 -0.483024,-2.09735 l 0,-0.82622 q 0,-5.64376 8.185988,-10.2452 5.173442,-2.45325 8.313099,-2.45325 z m -11.973914,13.75347 0,0.1144 q 0,2.02108 2.567655,2.32615 l 0.978759,0 q 3.953171,0 7.33434,-4.53789 0.521158,-1.19485 0.724536,-3.15236 -0.1144,-1.62703 -0.355912,-1.98295 l 0.1144,-0.3432 q -0.33049,-1.75414 -0.483024,-1.75414 -3.597259,0.48303 -8.313099,4.665 -2.567655,2.49139 -2.567655,4.66499 z m -5.338687,-13.80432 0.800803,0 q 1.525339,0 2.51681,1.37281 l 0,0.3432 -4.347217,11.19853 q -1.601607,2.9617 -3.203213,8.35124 l -0.343201,0.3432 -0.343202,0 -0.457601,-0.3432 -0.114401,0.1144 -0.572002,0 -0.572002,-0.34321 -1.144005,0.11441 -0.915203,-1.02961 0,-0.8008 q 0,-0.50845 0.800803,-2.40241 l -2.961701,-7.08012 -0.915203,-2.74561 -0.114401,0 -4.5760176,9.59693 q -0.8008031,1.63974 -1.1440045,3.77521 l 0.1144005,0.1144 0,0.1144 q -0.1906674,0.91521 -0.4576018,0.91521 l -0.3432013,0 -1.1440045,-0.68641 -0.2288009,0 -0.4576018,0.1144 -0.3432013,-0.1144 -0.2288009,0.22881 -0.1144005,-0.11441 -0.1144004,0 -0.1144005,0.11441 -1.029604,-1.37281 0,-0.4576 q 0,-2.05921 5.376821,-12.57134 l 2.7456105,-5.83442 q 0.622847,-0.49574 3.876904,-0.68641 0.775381,0 1.601607,1.14401 l 0,0.1144 q 0,3.24135 2.974411,9.59693 1.601606,-2.74561 3.546414,-9.36813 0.394046,-1.48721 1.372805,-1.48721 0,-0.20337 0.572003,-0.2288 z m 38.308357,-39.4898 c 0,-0.71401 1.852505,-3.40242 3.859623,-5.6011 0.933705,-1.02284 3.462937,-2.7465 5.620468,-3.83033 7.155289,-3.59445 7.812806,-4.91454 5.817851,-11.68045 -0.732297,-2.48356 -1.715031,-4.10592 -3.269008,-5.39665 -2.346787,-1.94925 -2.787625,-3.30547 -1.355375,-4.16962 0.476592,-0.28756 1.064876,-1.0614 1.307262,-1.7196 0.502937,-1.36574 -0.153209,-9.74475 -0.851477,-10.87469 -0.254226,-0.41135 -2.200378,-1.19717 -4.324744,-1.74626 -4.41405,-1.14089 -7.077853,-3.31597 -8.190712,-6.68799 -0.419414,-1.2708 -2.363148,-4.19729 -4.319412,-6.50333 -4.164055,-4.90854 -5.507192,-7.79678 -7.960284,-17.11738 -1.059274,-4.02474 -2.116638,-6.80476 -2.553051,-6.71244 -0.488108,0.10329 -0.61425,-0.49579 -0.365884,-1.73764 0.298669,-1.49336 0.08396,-2.05312 -1.011723,-2.63961 -2.430212,-1.30061 -3.906182,1.14716 -1.527223,2.53279 1.063797,0.61959 1.065578,0.6678 0.02526,0.68629 -0.763509,0.0123 -1.348285,-0.83182 -1.840915,-2.66133 -0.397096,-1.47466 -0.591963,-2.8112 -0.433056,-2.97012 0.158897,-0.15888 1.351403,0.21771 2.649967,0.83697 2.886386,1.37644 3.380063,0.98734 2.423715,-1.91042 -0.798055,-2.41813 -3.969069,-4.59142 -3.969069,-2.72024 0,0.54327 0.661974,1.24299 1.47107,1.55499 1.381795,0.53283 1.395879,0.5975 0.232285,1.06586 -1.8143,0.73032 -3.191724,-1.41989 -2.680261,-4.18404 0.337025,-1.821589 -0.0076,-2.779588 -2.088363,-5.801105 -2.426111,-3.523375 -2.49337,-3.777104 -2.541504,-9.586483 -0.0381,-4.580675 -0.34064,-6.499079 -1.302524,-8.255629 -2.29044,-4.182791 -1.088749,-10.282885 3.076321,-15.615951 0.669755,-0.857576 1.217739,-2.119694 1.217739,-2.804698 0,-3.757462 4.777517,-9.117554 10.460776,-11.736406 1.61817,-0.745615 5.192334,-2.476145 7.942595,-3.845582 6.595498,-3.284108 11.104403,-4.171416 18.504507,-3.641574 8.494162,0.608206 8.142081,0.616106 12.734347,-0.285599 8.249747,-1.619908 22.19345,1.366534 32.71077,7.005933 3.04231,1.631293 8.71441,3.973861 12.60468,5.205727 5.92497,1.876173 7.53329,2.686089 9.9074,4.989189 2.87819,2.792124 5.62716,8.61875 5.62716,11.927172 0,2.062278 0.68849,2.034153 2.66471,-0.108723 1.9229,-2.085179 5.09186,-3.511643 7.80117,-3.511643 2.37081,0 6.3356,1.896387 8.143,3.894849 0.70574,0.780345 2.6938,2.025627 4.41791,2.767313 3.36219,1.446388 6.78902,4.82726 7.41307,7.313689 0.21127,0.841301 -0.0954,2.674725 -0.68152,4.074252 -0.90992,2.173245 -0.94609,2.973966 -0.24777,5.486718 0.44968,1.618138 1.64826,3.824721 2.66352,4.903508 2.4352,2.587576 3.58808,6.322703 2.61248,8.463943 -0.39976,0.87737 -0.72031,3.65741 -0.71235,6.17786 0.0148,5.03516 -1.31035,8.78649 -3.52556,9.97203 -0.72444,0.38771 -1.96565,1.45886 -2.75827,2.38029 -1.1698,1.36 -2.16734,1.72792 -5.29906,1.95441 l -3.85798,0.279 0.23055,2.89068 c 0.32462,4.07121 -0.25126,5.78647 -2.94311,8.76602 -4.45146,4.92724 -11.3685,5.56825 -17.35265,1.60814 -2.66694,-1.7649 -3.75905,-1.5346 -3.78846,0.79892 -0.005,0.43683 -0.59843,1.10916 -1.31761,1.49405 -1.94578,1.04136 -1.59124,1.84894 1.02742,2.34019 8.10247,1.52005 11.03554,13.33179 4.90028,19.73403 -1.92191,2.00556 -1.27821,2.67505 2.19555,2.28351 6.40793,-0.72227 8.86897,1.77921 8.87313,9.01878 0.001,2.39028 0.33979,4.61977 0.766,5.04595 1.05949,1.05952 2.48375,5.34379 2.49559,7.50702 0.0123,2.25232 -2.08075,4.41314 -4.27481,4.41314 -2.4217,0 -5.98947,-3.10126 -7.89756,-6.86489 -2.0542,-4.05177 -1.80959,-3.85166 -3.4534,-2.82509 -1.15832,0.72338 -1.66465,0.70126 -3.15977,-0.13788 -0.97923,-0.54963 -2.08075,-1.60174 -2.44784,-2.33802 -0.36707,-0.7363 -1.18041,-1.85171 -1.8074,-2.47869 -0.62701,-0.62701 -1.13999,-1.75319 -1.13999,-2.50263 0,-0.74945 -0.73554,-2.32698 -1.63451,-3.50559 -0.89896,-1.17863 -1.63451,-2.46963 -1.63451,-2.8689 0,-0.39928 -0.73551,-1.51919 -1.63451,-2.4887 -0.89896,-0.9695 -1.63503,-2.05995 -1.63566,-2.42322 -10e-4,-0.75249 -5.3044,-4.25637 -6.44195,-4.25637 -0.41177,0 -0.74868,-0.2942 -0.74868,-0.6538 0,-0.35961 -0.44132,-0.65381 -0.9807,-0.65381 -1.54921,0 -1.15261,-1.22429 1.04759,-3.23387 2.57831,-2.3549 2.1437,-4.10843 -1.36626,-5.51286 -2.91803,-1.16755 -3.71069,-2.33569 -4.32405,-6.37223 -0.23896,-1.57331 -0.78417,-3.30186 -1.21132,-3.84123 -0.42718,-0.53942 -0.82657,-1.7959 -0.88756,-2.7922 -0.13837,-2.25855 -1.92193,-5.07484 -2.96146,-4.67593 -0.42794,0.16432 -1.58256,-0.9422 -2.56585,-2.45863 -1.87525,-2.89211 -2.37608,-5.43277 -0.97055,-4.92356 0.44949,0.16285 1.37492,-0.18039 2.05654,-0.76279 1.17726,-1.00585 1.20172,-0.98719 0.48857,0.37254 -0.57104,1.08879 -0.56391,1.54683 0.0297,1.9137 0.42925,0.26529 0.89831,0.12875 1.04236,-0.30347 0.14407,-0.43218 1.26471,-1.20479 2.49034,-1.71689 2.43146,-1.01592 2.88012,-2.13818 1.08425,-2.71213 -0.62929,-0.20115 -1.81206,-0.68609 -2.62842,-1.07773 -1.09503,-0.52532 -1.68651,-0.50978 -2.2556,0.0593 -1.15475,1.15478 -1.97222,0.95628 -4.39646,-1.06757 -2.02233,-1.68832 -2.22002,-2.18354 -2.4139,-6.04763 -0.12924,-2.57388 0.11812,-4.84368 0.63652,-5.84324 0.70143,-1.35246 0.69199,-1.87952 -0.0546,-3.0543 -0.73153,-1.150871 -0.75476,-1.912847 -0.12257,-4.022881 0.71222,-2.377135 0.65313,-2.736295 -0.68055,-4.137517 -0.80329,-0.843933 -1.90488,-2.196416 -2.44802,-3.00549 -0.54314,-0.809074 -1.3705,-1.471048 -1.83858,-1.471048 -0.46806,0 -0.94907,-0.285707 -1.06894,-0.634917 -0.30234,-0.880779 -8.118128,-1.901795 -15.772911,-2.060486 -3.52099,-0.07296 -6.541557,-0.358902 -6.712412,-0.635338 -0.799749,-1.294042 2.786318,-2.553462 7.270865,-2.553462 4.530393,0 14.098918,1.981464 15.605178,3.231527 0.52635,0.436855 1.20651,-0.339475 2.28187,-2.60452 1.69734,-3.575049 1.35157,-4.735589 -1.63413,-5.484938 -0.90876,-0.228076 -1.54883,-0.808481 -1.44423,-1.309561 0.1873,-0.897087 -2.456165,-3.639512 -3.508123,-3.639512 -0.304561,0 -0.553769,-0.534267 -0.553769,-1.187294 0,-0.653027 -0.98308,-2.057659 -2.184609,-3.121423 -1.201551,-1.063764 -2.304826,-2.221185 -2.451754,-2.572046 -0.147025,-0.350861 -2.292231,-1.667664 -4.76734,-2.926252 -4.383475,-2.228945 -4.570022,-2.427633 -7.19181,-7.661119 -1.480362,-2.955036 -2.994407,-5.38228 -3.364522,-5.393839 -0.370082,-0.0123 -1.097026,0.567379 -1.615375,1.286552 -1.117585,1.550588 -1.9614,1.691213 -1.9614,0.326924 0,-1.38459 -1.07106,-1.217243 -2.712013,0.42371 -1.135793,1.135792 -1.631045,1.262862 -2.589346,0.664391 -1.76117,-1.099865 -3.347124,-0.300007 -2.509256,1.26555 0.498857,0.93214 0.446913,1.242227 -0.208067,1.242227 -0.480122,0 -1.192755,-0.319779 -1.583623,-0.710648 -0.673641,-0.67364 -2.292944,0.223878 -4.231465,2.345158 -1.239486,1.356378 -5.780196,8.799598 -5.780196,9.475019 0,0.387685 -0.381933,1.356508 -0.848737,2.152955 -0.469329,0.800743 -0.834652,3.327007 -0.817254,5.651454 0.03486,4.652012 -0.512154,4.127016 5.790902,5.557883 2.596955,0.589514 7.427776,5.263046 8.380097,8.107266 0.441841,1.319566 0.74159,3.271523 0.666097,4.33764 -0.125775,1.775038 -3.599246,10.050945 -7.736287,18.432075 -0.91538,1.85441 -1.477103,3.67459 -1.248261,4.04486 0.764135,1.23636 4.474197,2.74334 5.228068,2.12352 0.395617,-0.32524 2.060097,-0.79091 3.698848,-1.0348 2.274813,-0.33853 3.175061,-0.20781 3.806028,0.55238 0.707464,0.85246 0.433423,1.11358 -1.903478,1.81373 -1.501439,0.44986 -2.87787,1.20348 -3.058708,1.67473 -0.18088,0.47126 -0.730214,0.85684 -1.220847,0.85684 -0.490655,0 -1.156158,0.95618 -1.478948,2.12484 -0.685696,2.48255 0.615609,4.04676 2.892246,3.47653 0.749122,-0.18755 2.514371,0.25356 3.922801,0.98045 1.760997,0.90885 3.224361,1.20122 4.685599,0.93615 1.591059,-0.28859 2.124862,-0.14925 2.124862,0.55496 0,1.41495 -1.833111,1.84419 -5.773181,1.35191 -2.830157,-0.35358 -3.486594,-0.26438 -3.251169,0.44187 0.162339,0.48671 0.999657,1.05129 1.860945,1.25461 1.522496,0.35942 1.507796,0.39376 -0.530533,1.23805 l -2.096468,0.8684 1.632427,1.28409 c 1.621559,1.2755 1.684792,2.72167 0.09217,2.11057 -1.479671,-0.5678 -5.319155,2.55143 -5.546217,4.50578 -0.430433,3.70465 4.609955,6.44706 11.813971,6.42786 1.694138,-0.005 2.451733,0.28262 2.451733,0.92921 0,1.26865 5.918403,1.25644 10.162938,-0.0198 1.748445,-0.52621 3.280556,-0.85513 3.404755,-0.73097 0.519266,0.51927 -0.732772,3.78266 -1.575324,4.10596 -1.519873,0.58325 -3.453203,5.68418 -3.387876,8.9387 0.03335,1.66466 0.317653,3.02663 0.631625,3.02663 0.314005,0 0.570897,0.31157 0.570897,0.69239 0,0.38081 -0.246369,0.5402 -0.54724,0.35418 -0.301,-0.18607 -1.22184,0.13418 -2.046359,0.71176 l -1.499097,1.05 1.556006,1.19651 c 0.970658,0.74638 1.207551,1.20197 0.629769,1.21104 -0.509402,0.008 -0.755274,0.18558 -0.546344,0.39441 0.209049,0.20905 1.025084,0.0346 1.813653,-0.38746 2.092809,-1.12004 3.120127,0.15889 1.513171,1.88371 -1.364937,1.46509 -2.006794,7.55741 -0.870203,8.25986 1.104538,0.68263 -0.506423,2.95683 -1.755093,2.47767 -0.677493,-0.25998 -0.917031,-0.15321 -0.644792,0.28724 0.403668,0.65315 -1.346061,1.94811 -6.577216,4.86771 -2.299591,1.28345 -4.138628,2.67677 -6.534639,4.95096 -0.852416,0.80907 -1.759939,1.47104 -2.01668,1.47104 -0.25674,0 -0.834274,0.58844 -1.283411,1.30761 -0.595061,0.95282 -1.524697,1.30761 -3.426275,1.30761 -1.435315,0 -2.609658,-0.22881 -2.609658,-0.50831 z m 97.416261,-9.95248 c 0,-0.35959 -0.31158,-0.65379 -0.6924,-0.65379 -0.38081,0 -0.51054,0.2942 -0.28829,0.65379 0.22215,0.35959 0.5338,0.65382 0.69238,0.65382 0.15865,0 0.28831,-0.29423 0.28831,-0.65382 z m -11.72542,-8.5224 c 0.73149,-0.3915 1.26461,-1.36442 1.26461,-2.30787 l 0,-1.63107 -1.95337,1.44419 c -1.07434,0.79429 -2.15987,1.23765 -2.41228,0.98523 -0.25243,-0.25245 0.18532,-0.91019 0.97265,-1.46168 1.95529,-1.36956 1.92791,-3.12806 -0.0395,-2.53367 -0.80907,0.24438 -1.69539,0.65042 -1.96955,0.90216 -0.834,0.76575 0.24969,4.53957 1.39079,4.84326 0.58801,0.15643 1.162,0.3187 1.27555,0.36041 0.11368,0.0418 0.77552,-0.22882 1.47105,-0.60096 z m -4.43124,-7.88797 c -1.5882,-0.57987 -2.80354,0.52817 -2.80354,2.55605 l 0,1.67676 1.98628,-1.90299 c 1.76159,-1.68773 1.85406,-1.95127 0.81726,-2.32982 z m -60.264434,-0.7764 c -0.533955,-0.53394 -0.727365,-0.46077 -0.727365,0.27513 0,1.29968 0.879181,2.17882 1.204076,1.2041 0.137884,-0.41353 -0.07663,-1.07919 -0.476711,-1.47923 z m -2.034973,-0.13888 c 0,-0.35958 -0.294201,-0.75186 -0.653793,-0.87173 -0.359582,-0.11985 -0.653782,0.27241 -0.653782,0.87173 0,0.59932 0.2942,0.9916 0.653782,0.87175 0.359592,-0.11985 0.653793,-0.51216 0.653793,-0.87175 z m -3.268987,-0.32689 c 0,-0.35959 -0.294223,-0.65381 -0.653815,-0.65381 -0.359581,0 -0.653793,0.29422 -0.653793,0.65381 0,0.35959 0.294212,0.65379 0.653793,0.65379 0.359592,0 0.653815,-0.2942 0.653815,-0.65379 z m 62.764854,-0.65381 c 0,-0.3596 -0.29423,-0.6538 -0.65382,-0.6538 -0.35959,0 -0.65379,0.2942 -0.65379,0.6538 0,0.35958 0.2942,0.65381 0.65379,0.65381 0.35959,0 0.65382,-0.29423 0.65382,-0.65381 z m -66.687656,-0.6538 c 0,-0.35959 -0.129725,-0.65379 -0.288319,-0.65379 -0.158638,0 -0.470139,0.2942 -0.692387,0.65379 -0.222151,0.3596 -0.09238,0.6538 0.288319,0.6538 0.38081,0 0.692387,-0.2942 0.692387,-0.6538 z m 53.611636,-21.24852 c 0,-0.54482 -0.58117,-0.98069 -1.3076,-0.98069 -1.30253,0 -1.70062,0.69664 -0.87173,1.52554 0.79628,0.79627 2.17933,0.45052 2.17933,-0.54485 z m -68.712952,-16.4644 c -0.445974,-0.83332 -1.381471,-1.51511 -2.078854,-1.51511 -1.055562,0 -1.193273,0.30122 -0.821896,1.79794 0.245376,0.98887 0.71858,1.89602 1.05158,2.0159 0.332999,0.11983 0.605464,0.72298 0.605464,1.34027 0,0.61732 0.367762,1.49355 0.817244,1.94724 0.65538,0.66148 0.858871,0.33996 1.027297,-1.62314 0.115651,-1.3464 -0.154936,-3.12979 -0.600835,-3.9631 z m -1.699944,-7.28288 c -0.503304,-7.65001 -0.451899,-9.55103 0.312548,-11.55797 0.41091,-1.07876 1.229147,-3.57954 1.818294,-5.55728 0.589179,-1.97777 1.628228,-4.750259 2.309013,-6.161139 0.680774,-1.41087 1.16626,-2.59743 1.078831,-2.636768 -0.08753,-0.03929 -0.673803,-0.465617 -1.303086,-0.947282 -0.919923,-0.704096 -1.337578,-0.715223 -2.131112,-0.05655 -0.611486,0.50748 -1.979489,0.685987 -3.59591,0.469178 -2.932027,-0.393264 -3.594497,0.59096 -0.810996,1.204864 2.935071,0.647339 3.204989,0.829882 1.307608,0.884373 -0.988865,0.02838 -1.797939,0.384544 -1.797939,0.791472 0,0.489716 -0.913253,0.617422 -2.700788,0.377658 l -2.7008,-0.362257 0.49698,5.016221 c 0.27335,2.75891 0.477261,5.53109 0.453119,6.16037 -0.02472,0.62927 0.266378,1.14415 0.645569,1.14415 0.37918,0 0.535627,0.58813 0.347645,1.30693 -0.188047,0.71883 -0.06745,1.47656 0.267986,1.6838 0.335353,0.20732 0.537117,0.72245 0.448328,1.14483 -0.20361,0.96823 1.5923,5.01765 2.225232,5.01765 0.259417,0 0.658811,1.4107 0.887535,3.13488 0.312386,2.35489 0.703654,3.15655 1.572529,3.22202 1.02571,0.0774 1.124158,-0.40723 0.869414,-4.27904 z M 56.585569,99.318787 c -0.22215,-0.359592 -0.09238,-0.653793 0.28833,-0.653793 0.38081,0 0.692387,0.294201 0.692387,0.653793 0,0.359581 -0.129735,0.653793 -0.28833,0.653793 -0.158637,0 -0.470139,-0.294212 -0.692387,-0.653793 z m 57.207541,13.152253 c 0,-0.78459 -2.52942,-1.39778 -2.95113,-0.7154 -0.18558,0.30011 0.32907,0.67373 1.14348,0.83027 0.81443,0.15643 1.55432,0.32468 1.64422,0.37366 0.0899,0.0489 0.16333,-0.17101 0.16333,-0.48853 z m -0.6538,-2.69146 c 0,-0.35959 -0.4413,-0.65379 -0.9807,-0.65379 -0.53938,0 -0.9807,0.2942 -0.9807,0.65379 0,0.3596 0.44132,0.65382 0.9807,0.65382 0.5394,0 0.9807,-0.29422 0.9807,-0.65382 z m -1.57519,-3.10073 c -0.45342,-0.45341 -1.69381,0.46782 -1.69381,1.25796 0,0.43356 0.37513,0.38393 0.9965,-0.1317 0.54808,-0.45484 0.86185,-0.96166 0.69731,-1.1262 z M 54.038475,92.304048 c -0.664585,-0.664597 -1.212958,0.335989 -0.667672,1.218279 0.411925,0.666495 0.565922,0.667013 0.787371,0.0022 0.151482,-0.454252 0.09756,-1.003672 -0.119591,-1.220923 z m 9.412014,-0.153458 c 0,-1.271086 -4.879873,-3.946372 -7.180123,-3.936368 -3.849489,0.01727 -4.406096,1.05962 -0.7939,1.48741 1.777801,0.210527 4.22568,0.988422 5.439729,1.728576 2.55181,1.555704 2.534294,1.550739 2.534294,0.720382 z m -1.452194,-4.763627 c -0.330183,-1.064336 -4.121177,-2.861207 -7.130607,-3.379836 -1.989817,-0.342907 -2.425021,-0.20485 -2.702936,0.858072 -0.290477,1.110743 0.12775,1.320095 3.394956,1.699275 2.049424,0.237962 4.148385,0.699607 4.664348,1.026109 1.325372,0.838678 2.071063,0.753105 1.774239,-0.20362 z m 47.218215,-1.875116 c 0,-0.359581 -0.2942,-0.471962 -0.65379,-0.249714 -0.35961,0.22214 -0.65381,0.698268 -0.65381,1.05785 0,0.359592 0.2942,0.471973 0.65381,0.249725 0.35959,-0.22214 0.65379,-0.698268 0.65379,-1.057861 z m -58.188252,0.07706 c 0,-0.359592 -0.129725,-0.653814 -0.288298,-0.653814 -0.158637,0 -0.47016,0.294222 -0.692386,0.653814 -0.222151,0.359592 -0.09238,0.653793 0.288297,0.653793 0.380821,0 0.692387,-0.294201 0.692387,-0.653793 z M 108.05067,81.66712 c -0.45564,-0.597079 -2.10317,2.190221 -2.10215,3.556389 6.7e-4,1.010147 0.29422,0.775002 1.17593,-0.94221 0.64617,-1.258556 1.063,-2.43495 0.92622,-2.614179 z m 3.78104,76.78197 c 0,-0.56061 0.29902,-0.8345 0.66446,-0.60863 0.36545,0.22586 0.4952,0.68453 0.28833,1.01929 -0.56046,0.90685 -0.95279,0.73776 -0.95279,-0.41066 z m 5.23041,-1.59594 c 0,-0.35959 0.31157,-0.65379 0.69239,-0.65379 0.38081,0 0.51055,0.2942 0.2883,0.65379 -0.22215,0.35962 -0.5338,0.65382 -0.6924,0.65382 -0.15863,0 -0.28829,-0.2942 -0.28829,-0.65382 z m 4.90349,-1.9614 c 0.22215,-0.35959 0.53383,-0.65379 0.69239,-0.65379 0.15865,0 0.28833,0.2942 0.28833,0.65379 0,0.35961 -0.31158,0.65382 -0.6924,0.65382 -0.38081,0 -0.51054,-0.29421 -0.28832,-0.65382 z m 4.01401,-4.37644 c -0.7363,-0.7363 -0.44844,-1.50776 0.56261,-1.50776 0.53938,0 0.9807,0.27686 0.9807,0.61522 0,0.82444 -1.02098,1.41489 -1.54331,0.89254 z m -12.45316,-9.10525 c -0.32342,-0.84281 -0.10382,-0.97834 1.07419,-0.66274 0.81442,0.21819 1.7188,0.40081 2.00971,0.4057 0.29092,0.005 0.34709,0.30315 0.12479,0.66274 -0.63714,1.03087 -2.76054,0.76242 -3.20877,-0.4057 z m 0.19496,-5.96887 c -0.38887,-2.66026 -0.32642,-4.8209 0.14777,-5.11397 0.31775,-0.19645 0.57773,0.98427 0.57773,2.62365 0,1.63936 -0.14702,2.98069 -0.32691,2.98069 -0.1799,0 -0.35915,-0.22068 -0.39856,-0.49037 z m 3.70167,-0.32689 c -0.78369,-2.5438 -0.9982,-4.48008 -0.45944,-4.1471 0.33428,0.20658 0.72829,1.40809 0.87562,2.66998 0.26731,2.28985 0.0605,3.0242 -0.41618,1.47712 z M 88.785249,98.226606 c -0.629283,-0.171243 -1.180915,-0.731109 -1.225866,-1.244126 -0.045,-0.513039 -0.118608,-1.287275 -0.163343,-1.720547 -0.045,-0.433272 -0.817244,-0.971813 -1.716219,-1.196781 -1.600481,-0.400484 -1.591416,-0.418918 0.435646,-0.886639 2.258549,-0.521144 6.867758,0.459368 9.207897,1.958778 1.878278,1.203483 1.933114,2.454776 0.08181,1.867205 -0.76407,-0.242408 -1.576112,-0.138628 -1.804511,0.231044 -0.516946,0.836454 -3.287971,1.406779 -4.815323,0.99112 z m -8.98976,-1.538576 c 0,-0.517636 2.925616,-2.599728 3.65297,-2.599728 0.236472,0 0.102312,0.394829 -0.298237,0.877401 -0.400506,0.482571 -0.571253,1.034333 -0.37945,1.226136 0.191748,0.191759 -0.399201,0.491691 -1.313296,0.66642 -0.914095,0.174707 -1.661987,0.0981 -1.661987,-0.17025 z"
           style="font-style:normal;font-variant:normal;font-weight:bold;font-stretch:normal;font-family:lazer84;-inkscape-font-specification:'lazer84 Bold';stroke:#ffffff;stroke-width:10;stroke-linejoin:round;stroke-miterlimit:4;stroke-dasharray:none;stroke-opacity:1"
           id="path4178"
           inkscape:connector-curvature="0" />
      </g>
      <g
         transform="translate(326.47954,0)"
         aria-label="NO UNDO"
         style="font-style:normal;font-weight:normal;font-size:26.03245735px;line-height:1.25;font-family:sans-serif;letter-spacing:0px;word-spacing:0px;fill:#000000;fill-opacity:1;stroke:none;stroke-width:0.65081137"
         id="g4180">
        <path
           id="path4182"
           style="font-style:normal;font-variant:normal;font-weight:bold;font-stretch:normal;font-family:lazer84;-inkscape-font-specification:'lazer84 Bold';stroke:none;stroke-width:6.85099983;stroke-miterlimit:4;stroke-dasharray:none;stroke-opacity:1"
           d="m 133.96538,203.96112 0.12712,0 q 1.20756,0 2.44054,2.32615 l 0.12711,0.12711 0,0.572 q 0,0.54658 -1.83041,0.94063 l 0,0.1144 q 2.80917,3.48285 2.80917,6.52082 l 0,0.58472 q 0,7.525 -6.48269,9.67319 -2.21174,0.58471 -3.66082,0.58471 l -1.34738,0 q -5.6946,0 -8.1987,-5.82171 -0.35591,-0.0763 -0.48302,-2.09734 l 0,-0.82623 q 0,-5.64375 8.18599,-10.24519 5.17344,-2.45326 8.31309,-2.45326 z m -11.97391,13.75348 0,0.1144 q 0,2.02107 2.56766,2.32614 l 0.97875,0 q 3.95318,0 7.33434,-4.53788 0.52116,-1.19485 0.72454,-3.15237 -0.1144,-1.62703 -0.35591,-1.98294 l 0.1144,-0.3432 q -0.33049,-1.75414 -0.48303,-1.75414 -3.59725,0.48302 -8.31309,4.66499 -2.56766,2.49139 -2.56766,4.665 z m -13.2069,-13.10521 0.55929,0 q 4.35993,0 8.13514,2.64392 1.53806,1.48721 1.53806,2.86002 0,3.10152 -6.4827,9.4571 -3.40659,2.5041 -6.82589,3.96588 -3.91504,1.14401 -4.84295,1.86854 l -1.207563,-0.1144 q -2.046497,0.99147 -2.529521,0.99147 l -0.1144,-0.1144 0.33049,-0.54658 -0.101689,0 -0.660981,0.21609 -0.1144,-0.66098 0.21609,-0.43218 -0.10169,0 -0.54658,0.21609 -0.1144,-0.1144 0,-0.10169 0.1144,-0.33049 -0.1144,0 -0.444891,0.1144 q -0.33049,0 -0.33049,-0.44489 -0.54658,-0.0763 -0.54658,-0.33049 0.483024,-0.52116 1.436361,-0.87707 1.881252,-1.43636 5.160734,-9.02492 1.98294,-4.56331 1.98294,-5.17345 -1.99565,0 -3.0761,-2.63121 0,-0.92791 8.68172,-1.43636 z m -4.83024,14.74495 q 9.3427,-4.35993 9.3427,-8.24954 0,-2.55495 -4.06757,-3.19051 -0.81351,0 -1.20756,1.97023 z m -6.622513,-15.44406 0.800803,0 q 1.525339,0 2.51681,1.3728 l 0,0.34321 -4.347217,11.19853 q -1.601607,2.9617 -3.203213,8.35123 l -0.343201,0.3432 -0.343202,0 -0.457601,-0.3432 -0.114401,0.1144 -0.572002,0 -0.572002,-0.3432 -1.144005,0.1144 -0.915203,-1.0296 0,-0.80081 q 0,-0.50844 0.800803,-2.40241 l -2.961701,-7.08011 -0.915203,-2.74561 -0.114401,0 -4.576018,9.59692 q -0.800803,1.63974 -1.144004,3.77522 l 0.1144,0.1144 0,0.1144 q -0.190667,0.9152 -0.457602,0.9152 l -0.343201,0 -1.144004,-0.6864 -0.228801,0 -0.457602,0.1144 -0.343201,-0.1144 -0.228801,0.2288 -0.114401,-0.1144 -0.1144,0 -0.114401,0.1144 -1.029604,-1.3728 0,-0.45761 q 0,-2.0592 5.376821,-12.57133 l 2.745611,-5.83443 q 0.622847,-0.49573 3.876904,-0.6864 0.775381,0 1.601606,1.144 l 0,0.1144 q 0,3.24135 2.974412,9.59693 1.601606,-2.74561 3.546414,-9.36812 0.394046,-1.48721 1.372805,-1.48721 0,-0.20338 0.572003,-0.2288 z m -31.777901,0.0763 0.559291,0 q 1.766852,0 2.885434,1.88125 l 0.101689,0.44489 q 0,0.92791 -2.440543,5.55478 -2.554943,5.0209 -2.554943,9.20288 l 0,0.33049 q 2.872722,-1.86854 4.664996,-4.5506 4.220105,-5.37682 4.995486,-7.76652 l 0.66098,-1.43636 q 0.330491,0 0.330491,-0.33049 l 0.1144,-0.1144 0.228801,0 0,0.44489 0.101689,0 q 0.305068,-1.88125 0.559291,-1.88125 l 0.114401,0 0,0.44489 0.101689,0 0,-0.88978 0.228801,0 0,0.33049 q 0.394046,-0.20338 0.99147,-1.66516 l 0.114401,0 q 1.105871,1.0296 1.105871,3.21592 0,7.32163 -9.41897,16.63891 -1.804985,1.11858 -4.105705,1.11858 -4.258239,0 -5.669178,-3.11423 l -0.21609,-1.33467 0,-0.54658 q 0,-4.37264 1.779563,-7.76652 l 2.885433,-6.77505 q 0.940626,-1.43636 1.881252,-1.43636 z m -16.753309,-0.0254 0.127111,0 q 1.207561,0 2.440543,2.32615 l 0.127112,0.12711 0,0.572 q 0,0.54658 -1.830407,0.94063 l 0,0.1144 q 2.809166,3.48285 2.809166,6.52082 l 0,0.58472 q 0,7.525 -6.482692,9.67319 -2.211742,0.58471 -3.660814,0.58471 l -1.347383,0 q -5.6946,0 -8.198699,-5.82171 -0.355912,-0.0763 -0.483024,-2.09734 l 0,-0.82623 q 0,-5.64375 8.185987,-10.24519 5.173443,-2.45326 8.3131,-2.45326 z m -11.973914,13.75348 0,0.1144 q 0,2.02107 2.567655,2.32614 l 0.978759,0 q 3.953171,0 7.33434,-4.53788 0.521157,-1.19485 0.724536,-3.15237 -0.1144,-1.62703 -0.355912,-1.98294 l 0.1144,-0.3432 q -0.33049,-1.75414 -0.483024,-1.75414 -3.597259,0.48302 -8.313099,4.66499 -2.567655,2.49139 -2.567655,4.665 z m -5.338687,-13.80432 0.800803,0 q 1.525339,0 2.516809,1.3728 l 0,0.34321 -4.347217,11.19853 q -1.601606,2.9617 -3.203212,8.35123 l -0.343201,0.3432 -0.343202,0 -0.457602,-0.3432 -0.1144,0.1144 -0.572002,0 -0.572002,-0.3432 -1.144005,0.1144 -0.915203,-1.0296 0,-0.80081 q 0,-0.50844 0.800803,-2.40241 l -2.961701,-7.08011 -0.915203,-2.74561 -0.114401,0 -4.576018,9.59692 q -0.800803,1.63974 -1.144004,3.77522 l 0.1144,0.1144 0,0.1144 q -0.190667,0.9152 -0.457602,0.9152 l -0.343201,0 -1.144004,-0.6864 -0.228801,0 -0.457602,0.1144 -0.343201,-0.1144 -0.228801,0.2288 -0.114401,-0.1144 -0.1144,0 -0.114401,0.1144 -1.0296037,-1.3728 0,-0.45761 q 0,-2.0592 5.3768207,-12.57133 l 2.745611,-5.83443 q 0.622847,-0.49573 3.876904,-0.6864 0.775381,0 1.601606,1.144 l 0,0.1144 q 0,3.24135 2.974412,9.59693 1.601606,-2.74561 3.546414,-9.36812 0.394046,-1.48721 1.372805,-1.48721 0,-0.20338 0.572003,-0.2288 z m 165.585284,30.86005 0.99147,0 q 7.41061,0 8.74528,4.86837 l 0.1144,0.67369 0,0.33049 q 0,1.46179 -6.64794,4.86838 1.66517,7.05469 1.66517,9.85115 l 0.1144,0.1144 0,0.10169 -0.1144,0.3432 0.1144,0.99147 -0.1144,0.1144 -0.21609,0 q 0,-0.44489 -0.2288,-0.44489 0,0.33049 -0.21609,0.33049 l -0.22881,0 -0.10168,-0.1144 -0.1144,0 q -0.16525,0.44489 -0.33049,0.44489 l -0.5593,-0.1144 -0.21609,0.2288 q -0.0763,-0.55929 -0.55929,-0.55929 -1.76685,-4.11842 -3.08881,-9.52066 l -4.98277,1.66516 q -0.68641,1.56347 -1.10587,1.76685 l -0.11441,0.55929 -0.33049,0 0.4449,-1.22027 0,-0.1144 -0.11441,0 -0.55929,1.22027 0.2288,0.2288 q -0.41946,0 -1.66516,2.31344 -0.15253,0.0127 -0.66098,1.44907 -0.2288,0 -1.10587,2.21174 l -0.1144,0 q 0,-0.50845 -1.10587,-0.88978 l -0.21609,0.2288 q 0,-0.2288 -0.3432,-0.2288 l -0.33049,0.1144 q -0.24151,-0.59743 -0.66098,-0.66098 l 0,-0.3432 q 0,-2.68206 6.08864,-14.83393 -2.32614,-1.57618 -2.32614,-2.54223 l 0,-0.54658 q 0.089,-0.58471 4.093,-1.99565 0.55929,-0.88978 5.87255,-0.88978 z m -3.54641,8.74528 0.2288,0 q 6.64794,-2.8473 8.07159,-4.53789 l 0,-0.1144 -2.21175,-0.10169 -0.21609,0 q -4.20739,0 -4.20739,0.99147 -1.30925,3.34304 -1.66516,3.76251 z m -6.39371,-7.9699 q 0,0.43218 0.43218,0.43218 l 0,0.21609 -0.33049,0 0,0.1144 q 0.54658,0 0.54658,0.21609 l 0,0.1144 -0.43218,0 q 0,0.33049 0.64827,0.33049 l 0,0.21609 -0.33049,0 0,0.10169 1.30925,0 0.99147,0.54658 -0.1144,0.1144 0,0.10169 q 0.54658,0 0.54658,0.2288 0,0.39404 -4.04215,0.86436 -1.3728,0 -5.22429,1.52534 l -1.20756,2.40241 0.1144,0 q 0.58472,-0.21609 3.38117,-0.3305 l 0.21609,0.3305 -0.33049,0.1144 0,0.10168 q 0.87707,0 0.87707,0.21609 l -0.54658,0.22881 0,0.10168 0.21609,0 -0.10169,0.33049 q 0,0.54658 0.86436,0.87708 l 0,0.10168 -0.10169,0.1144 0,0.10169 q 0.54658,0 0.54658,0.2288 l 0,0.10169 q 0,0.33049 -6.87674,1.74143 -0.85164,0 -2.18632,3.27948 l 7.8555,-1.30925 0,0.21609 0.1144,0 0.54658,-0.1144 q 0.13983,0.54658 0.54658,0.54658 l 0,0.33049 q -0.26693,0 -0.54658,0.33049 l -0.2288,0 0,0.10169 0.66098,0 0,0.2288 -0.54658,0 0.1144,0.10169 0,0.1144 -0.1144,0.10169 q 1.61432,0 1.74143,0.54658 l -0.10169,0.1144 q 0.54658,0.0763 0.54658,0.33049 -0.96605,0.62285 -6.54625,1.62703 -6.54624,1.10587 -6.54624,1.97023 -0.15254,0.572 -0.97876,0.97876 l -0.1144,0 -0.64827,-0.54658 -0.2288,0 -0.54658,0.1144 q 0,-0.27964 -1.08045,-0.54658 l -0.33049,0.10169 -0.1144,-0.10169 0,-0.1144 0.1144,-0.33049 -0.21609,0 -0.1144,0.1144 -0.10169,0 -0.1144,-0.1144 0,-0.10169 q 0.90249,-3.24134 8.07158,-18.32949 0,-1.09316 1.52534,-1.30925 l 4.25824,0.1144 z m -23.63005,0.21609 0.55929,0 q 4.35993,0 8.13514,2.64392 1.53805,1.4872 1.53805,2.86001 0,3.10152 -6.48269,9.4571 -3.40659,2.5041 -6.82589,3.96589 -3.91504,1.144 -4.84295,1.86854 l -1.20756,-0.1144 q -2.0465,0.99147 -2.52953,0.99147 l -0.1144,-0.1144 0.33049,-0.54658 -0.10168,0 -0.66098,0.21609 -0.11441,-0.66098 0.21609,-0.43218 -0.10168,0 -0.54658,0.21609 -0.11441,-0.1144 0,-0.10169 0.11441,-0.33049 -0.11441,0 -0.44489,0.1144 q -0.33049,0 -0.33049,-0.44489 -0.54658,-0.0763 -0.54658,-0.33049 0.48303,-0.52116 1.43637,-0.87707 1.88125,-1.43637 5.16073,-9.02493 1.98294,-4.56331 1.98294,-5.17344 -1.99565,0 -3.0761,-2.63121 0,-0.92792 8.68172,-1.43636 z m -4.83024,14.74494 q 9.3427,-4.35992 9.3427,-8.24954 0,-2.55494 -4.06757,-3.1905 -0.81351,0 -1.20756,1.97023 z m -6.62251,-15.44406 0.8008,0 q 1.52534,0 2.51681,1.37281 l 0,0.3432 -4.34722,11.19853 q -1.6016,2.9617 -3.20321,8.35124 l -0.3432,0.3432 -0.3432,0 -0.45761,-0.3432 -0.1144,0.1144 -0.572,0 -0.572,-0.34321 -1.14401,0.11441 -0.9152,-1.02961 0,-0.8008 q 0,-0.50845 0.8008,-2.40241 l -2.9617,-7.08012 -0.9152,-2.74561 -0.1144,0 -4.57602,9.59693 q -0.8008,1.63974 -1.144,3.77521 l 0.1144,0.1144 0,0.1144 q -0.19067,0.91521 -0.4576,0.91521 l -0.34321,0 -1.144,-0.68641 -0.2288,0 -0.4576,0.1144 -0.3432,-0.1144 -0.2288,0.22881 -0.1144,-0.11441 -0.11441,0 -0.1144,0.11441 -1.0296,-1.37281 0,-0.4576 q 0,-2.05921 5.37682,-12.57134 l 2.74561,-5.83442 q 0.62285,-0.49574 3.87691,-0.68641 0.77538,0 1.6016,1.14401 l 0,0.1144 q 0,3.24135 2.97441,9.59693 1.60161,-2.74561 3.54642,-9.36813 0.39404,-1.48721 1.3728,-1.48721 0,-0.20337 0.57201,-0.2288 z m -18.66,0.48303 q 0,0.43218 0.43218,0.43218 l 0,0.21609 -0.33049,0 0,0.1144 q 0.54658,0 0.54658,0.21609 l 0,0.1144 -0.43218,0 q 0,0.33049 0.64827,0.33049 l 0,0.21609 -0.33049,0 0,0.10169 1.30925,0 0.99147,0.54658 -0.1144,0.1144 0,0.10169 q 0.54658,0 0.54658,0.2288 0,0.39404 -4.04215,0.86436 -1.3728,0 -5.22428,1.52534 l -1.20756,2.40241 0.1144,0 q 0.58471,-0.21609 3.38116,-0.3305 l 0.21609,0.3305 -0.33049,0.1144 0,0.10168 q 0.87707,0 0.87707,0.21609 l -0.54658,0.22881 0,0.10168 0.21609,0 -0.10169,0.33049 q 0,0.54658 0.86436,0.87708 l 0,0.10168 -0.10169,0.1144 0,0.10169 q 0.54658,0 0.54658,0.2288 l 0,0.10169 q 0,0.33049 -6.87673,1.74143 -0.85165,0 -2.18632,3.27948 l 7.85549,-1.30925 0,0.21609 0.1144,0 0.54658,-0.1144 q 0.13983,0.54658 0.54658,0.54658 l 0,0.33049 q -0.26693,0 -0.54658,0.33049 l -0.2288,0 0,0.10169 0.66098,0 0,0.2288 -0.54658,0 0.1144,0.10169 0,0.1144 -0.1144,0.10169 q 1.61432,0 1.74143,0.54658 l -0.10169,0.1144 q 0.54658,0.0763 0.54658,0.33049 -0.96604,0.62285 -6.54624,1.62703 -6.54625,1.10587 -6.54625,1.97023 -0.15254,0.572 -0.97876,0.97876 l -0.1144,0 -0.64827,-0.54658 -0.2288,0 -0.54658,0.1144 q 0,-0.27964 -1.08045,-0.54658 l -0.33049,0.10169 -0.1144,-0.10169 0,-0.1144 0.1144,-0.33049 -0.21609,0 -0.1144,0.1144 -0.10169,0 -0.1144,-0.1144 0,-0.10169 q 0.90249,-3.24134 8.07159,-18.32949 0,-1.09316 1.52534,-1.30925 l 4.25823,0.1144 z m -21.02425,-0.77538 0.99147,0 q 7.4106,0 8.74527,4.86837 l 0.11441,0.67369 0,0.33049 q 0,1.46179 -6.64794,4.86838 1.66516,7.05469 1.66516,9.85115 l 0.1144,0.1144 0,0.10169 -0.1144,0.3432 0.1144,0.99147 -0.1144,0.1144 -0.21609,0 q 0,-0.44489 -0.2288,-0.44489 0,0.33049 -0.21609,0.33049 l -0.2288,0 -0.10169,-0.1144 -0.1144,0 q -0.16525,0.44489 -0.33049,0.44489 l -0.55929,-0.1144 -0.21609,0.2288 q -0.0763,-0.55929 -0.55929,-0.55929 -1.76685,-4.11842 -3.08882,-9.52066 l -4.98277,1.66516 q -0.6864,1.56347 -1.10587,1.76685 l -0.1144,0.55929 -0.33049,0 0.44489,-1.22027 0,-0.1144 -0.1144,0 -0.55929,1.22027 0.2288,0.2288 q -0.41947,0 -1.66516,2.31344 -0.15254,0.0127 -0.66098,1.44907 -0.22881,0 -1.10588,2.21174 l -0.1144,0 q 0,-0.50845 -1.10587,-0.88978 l -0.216086,0.2288 q 0,-0.2288 -0.343202,-0.2288 l -0.33049,0.1144 q -0.241512,-0.59743 -0.66098,-0.66098 l 0,-0.3432 q 0,-2.68206 6.088648,-14.83393 -2.32614,-1.57618 -2.32614,-2.54223 l 0,-0.54658 q 0.089,-0.58471 4.09299,-1.99565 0.55929,-0.88978 5.87256,-0.88978 z m -3.54642,8.74528 0.2288,0 q 6.64794,-2.8473 8.07159,-4.53789 l 0,-0.1144 -2.21174,-0.10169 -0.21609,0 q -4.2074,0 -4.2074,0.99147 -1.30925,3.34304 -1.66516,3.76251 z m -12.774713,-8.74528 0.99147,0 q 7.410603,0 8.745283,4.86837 l 0.1144,0.67369 0,0.33049 q 0,1.46179 -6.647941,4.86838 1.665161,7.05469 1.665161,9.85115 l 0.1144,0.1144 0,0.10169 -0.1144,0.3432 0.1144,0.99147 -0.1144,0.1144 -0.21609,0 q 0,-0.44489 -0.2288,-0.44489 0,0.33049 -0.21609,0.33049 l -0.2288,0 -0.101689,-0.1144 -0.114401,0 q -0.165245,0.44489 -0.33049,0.44489 l -0.559291,-0.1144 -0.21609,0.2288 q -0.07627,-0.55929 -0.559291,-0.55929 -1.766851,-4.11842 -3.088812,-9.52066 l -4.982775,1.66516 q -0.686403,1.56347 -1.105871,1.76685 l -0.1144,0.55929 -0.330491,0 0.444891,-1.22027 0,-0.1144 -0.1144,0 -0.559292,1.22027 0.228801,0.2288 q -0.419468,0 -1.665162,2.31344 -0.152534,0.0127 -0.66098,1.44907 -0.228801,0 -1.105871,2.21174 l -0.114401,0 q 0,-0.50845 -1.105871,-0.88978 l -0.216089,0.2288 q 0,-0.2288 -0.343202,-0.2288 l -0.33049,0.1144 q -0.241512,-0.59743 -0.66098,-0.66098 l 0,-0.3432 q 0,-2.68206 6.088646,-14.83393 -2.326143,-1.57618 -2.326143,-2.54223 l 0,-0.54658 q 0.08898,-0.58471 4.092994,-1.99565 0.559291,-0.88978 5.872557,-0.88978 z m -3.546414,8.74528 0.228801,0 q 6.647937,-2.8473 8.071586,-4.53789 l 0,-0.1144 -2.211741,-0.10169 -0.21609,0 q -4.207394,0 -4.207394,0.99147 -1.30925,3.34304 -1.665162,3.76251 z m -19.511631,-8.37666 0.559292,0 q 1.766851,0 2.885433,1.88125 l 0.101689,0.44489 q 0,0.92792 -2.440543,5.55478 -2.554943,5.02091 -2.554943,9.20288 l 0,0.33049 q 2.872722,-1.86854 4.664996,-4.55059 4.220106,-5.37683 4.995486,-7.76652 l 0.660981,-1.43636 q 0.33049,0 0.33049,-0.3305 l 0.1144,-0.1144 0.228801,0 0,0.4449 0.10169,0 q 0.305067,-1.88126 0.559291,-1.88126 l 0.1144,0 0,0.44489 0.101689,0 0,-0.88978 0.228801,0 0,0.33049 q 0.394046,-0.20338 0.991471,-1.66516 l 0.1144,0 q 1.105871,1.0296 1.105871,3.21592 0,7.32163 -9.41897,16.63891 -1.804985,1.11859 -4.105705,1.11859 -4.258239,0 -5.669178,-3.11424 l -0.216089,-1.33467 0,-0.54658 q 0,-4.37264 1.779562,-7.76652 l 2.885434,-6.77505 q 0.940626,-1.43636 1.881251,-1.43636 z m -4.309085,-0.55929 0.241512,0 q 0.533869,0 1.42365,0.82623 l 0.114401,0.1144 0.1144,0 -0.1144,0.47031 0.1144,1.42365 q -0.190667,1.89396 -1.296538,1.89396 l -0.711825,0 q -4.626863,0 -11.579868,3.1905 l 0,0.2288 0.114401,0 q 8.592744,0.71183 9.457103,2.36428 0.826226,0.48302 0.826226,1.66516 -0.317779,3.88962 -0.940626,3.88962 -2.669344,1.99565 -5.91069,3.1905 -4.868375,1.66516 -13.35943,3.78792 l -0.1144,-0.1144 0,-0.12711 0.826225,-0.3432 0,-0.24151 -1.296538,0.24151 0,-0.12711 q 0,-0.26694 0.584713,-0.35591 l 0,-0.2288 -0.355912,0 0,-0.24152 0.241512,0 0,-0.1144 -0.711825,-0.24151 0.1144,-0.1144 0,-0.35591 q -0.470313,0 -0.470313,-0.35591 l -0.1144,0.1144 -0.241512,0 0,-0.1144 0.1144,-0.1144 0,-0.11441 -0.228801,0 q 0,-0.24151 -0.355912,-0.24151 l 0,-0.1144 q 0,-0.59742 9.571504,-3.31761 6.35558,-2.19903 7.334339,-2.94899 -10.054528,-0.66098 -10.054528,-2.13547 -1.182138,-0.76267 -1.182138,-2.23717 0,-1.36009 1.42365,-3.1905 8.64359,-5.91069 16.42282,-5.91069 z m -21.151371,21.03697 0,0.1144 0.241512,0 0,-0.1144 z m -5.071753,-20.5031 0.127111,0 q 1.207561,0 2.440543,2.32614 l 0.127112,0.12711 0,0.572 q 0,0.54658 -1.830407,0.94063 l 0,0.1144 q 2.809166,3.48286 2.809166,6.52083 l 0,0.58471 q 0,7.52501 -6.482692,9.67319 -2.211742,0.58472 -3.660814,0.58472 l -1.347383,0 q -5.6946,0 -8.198699,-5.82171 -0.355912,-0.0763 -0.483024,-2.09735 l 0,-0.82622 q 0,-5.64376 8.185988,-10.2452 5.173442,-2.45325 8.313099,-2.45325 z m -11.973914,13.75347 0,0.1144 q 0,2.02108 2.567655,2.32615 l 0.978759,0 q 3.953171,0 7.33434,-4.53789 0.521158,-1.19485 0.724536,-3.15236 -0.1144,-1.62703 -0.355912,-1.98295 l 0.1144,-0.3432 q -0.33049,-1.75414 -0.483024,-1.75414 -3.597259,0.48303 -8.313099,4.665 -2.567655,2.49139 -2.567655,4.66499 z m -5.338687,-13.80432 0.800803,0 q 1.525339,0 2.51681,1.37281 l 0,0.3432 -4.347217,11.19853 q -1.601607,2.9617 -3.203213,8.35124 l -0.343201,0.3432 -0.343202,0 -0.457601,-0.3432 -0.114401,0.1144 -0.572002,0 -0.572002,-0.34321 -1.144005,0.11441 -0.915203,-1.02961 0,-0.8008 q 0,-0.50845 0.800803,-2.40241 l -2.961701,-7.08012 -0.915203,-2.74561 -0.114401,0 -4.5760176,9.59693 q -0.8008031,1.63974 -1.1440045,3.77521 l 0.1144005,0.1144 0,0.1144 q -0.1906674,0.91521 -0.4576018,0.91521 l -0.3432013,0 -1.1440045,-0.68641 -0.2288009,0 -0.4576018,0.1144 -0.3432013,-0.1144 -0.2288009,0.22881 -0.1144005,-0.11441 -0.1144004,0 -0.1144005,0.11441 -1.029604,-1.37281 0,-0.4576 q 0,-2.05921 5.376821,-12.57134 l 2.7456105,-5.83442 q 0.622847,-0.49574 3.876904,-0.68641 0.775381,0 1.601607,1.14401 l 0,0.1144 q 0,3.24135 2.974411,9.59693 1.601606,-2.74561 3.546414,-9.36813 0.394046,-1.48721 1.372805,-1.48721 0,-0.20337 0.572003,-0.2288 z m 38.308357,-39.4898 c 0,-0.71401 1.852505,-3.40242 3.859623,-5.6011 0.933705,-1.02284 3.462937,-2.7465 5.620468,-3.83033 7.155289,-3.59445 7.812806,-4.91454 5.817851,-11.68045 -0.732297,-2.48356 -1.715031,-4.10592 -3.269008,-5.39665 -2.346787,-1.94925 -2.787625,-3.30547 -1.355375,-4.16962 0.476592,-0.28756 1.064876,-1.0614 1.307262,-1.7196 0.502937,-1.36574 -0.153209,-9.74475 -0.851477,-10.87469 -0.254226,-0.41135 -2.200378,-1.19717 -4.324744,-1.74626 -4.41405,-1.14089 -7.077853,-3.31597 -8.190712,-6.68799 -0.419414,-1.2708 -2.363148,-4.19729 -4.319412,-6.50333 -4.164055,-4.90854 -5.507192,-7.79678 -7.960284,-17.11738 -1.059274,-4.02474 -2.116638,-6.80476 -2.553051,-6.71244 -0.488108,0.10329 -0.61425,-0.49579 -0.365884,-1.73764 0.298669,-1.49336 0.08396,-2.05312 -1.011723,-2.63961 -2.430212,-1.30061 -3.906182,1.14716 -1.527223,2.53279 1.063797,0.61959 1.065578,0.6678 0.02526,0.68629 -0.763509,0.0123 -1.348285,-0.83182 -1.840915,-2.66133 -0.397096,-1.47466 -0.591963,-2.8112 -0.433056,-2.97012 0.158897,-0.15888 1.351403,0.21771 2.649967,0.83697 2.886386,1.37644 3.380063,0.98734 2.423715,-1.91042 -0.798055,-2.41813 -3.969069,-4.59142 -3.969069,-2.72024 0,0.54327 0.661974,1.24299 1.47107,1.55499 1.381795,0.53283 1.395879,0.5975 0.232285,1.06586 -1.8143,0.73032 -3.191724,-1.41989 -2.680261,-4.18404 0.337025,-1.821589 -0.0076,-2.779588 -2.088363,-5.801105 -2.426111,-3.523375 -2.49337,-3.777104 -2.541504,-9.586483 -0.0381,-4.580675 -0.34064,-6.499079 -1.302524,-8.255629 -2.29044,-4.182791 -1.088749,-10.282885 3.076321,-15.615951 0.669755,-0.857576 1.217739,-2.119694 1.217739,-2.804698 0,-3.757462 4.777517,-9.117554 10.460776,-11.736406 1.61817,-0.745615 5.192334,-2.476145 7.942595,-3.845582 6.595498,-3.284108 11.104403,-4.171416 18.504507,-3.641574 8.494162,0.608206 8.142081,0.616106 12.734347,-0.285599 8.249747,-1.619908 22.19345,1.366534 32.71077,7.005933 3.04231,1.631293 8.71441,3.973861 12.60468,5.205727 5.92497,1.876173 7.53329,2.686089 9.9074,4.989189 2.87819,2.792124 5.62716,8.61875 5.62716,11.927172 0,2.062278 0.68849,2.034153 2.66471,-0.108723 1.9229,-2.085179 5.09186,-3.511643 7.80117,-3.511643 2.37081,0 6.3356,1.896387 8.143,3.894849 0.70574,0.780345 2.6938,2.025627 4.41791,2.767313 3.36219,1.446388 6.78902,4.82726 7.41307,7.313689 0.21127,0.841301 -0.0954,2.674725 -0.68152,4.074252 -0.90992,2.173245 -0.94609,2.973966 -0.24777,5.486718 0.44968,1.618138 1.64826,3.824721 2.66352,4.903508 2.4352,2.587576 3.58808,6.322703 2.61248,8.463943 -0.39976,0.87737 -0.72031,3.65741 -0.71235,6.17786 0.0148,5.03516 -1.31035,8.78649 -3.52556,9.97203 -0.72444,0.38771 -1.96565,1.45886 -2.75827,2.38029 -1.1698,1.36 -2.16734,1.72792 -5.29906,1.95441 l -3.85798,0.279 0.23055,2.89068 c 0.32462,4.07121 -0.25126,5.78647 -2.94311,8.76602 -4.45146,4.92724 -11.3685,5.56825 -17.35265,1.60814 -2.66694,-1.7649 -3.75905,-1.5346 -3.78846,0.79892 -0.005,0.43683 -0.59843,1.10916 -1.31761,1.49405 -1.94578,1.04136 -1.59124,1.84894 1.02742,2.34019 8.10247,1.52005 11.03554,13.33179 4.90028,19.73403 -1.92191,2.00556 -1.27821,2.67505 2.19555,2.28351 6.40793,-0.72227 8.86897,1.77921 8.87313,9.01878 0.001,2.39028 0.33979,4.61977 0.766,5.04595 1.05949,1.05952 2.48375,5.34379 2.49559,7.50702 0.0123,2.25232 -2.08075,4.41314 -4.27481,4.41314 -2.4217,0 -5.98947,-3.10126 -7.89756,-6.86489 -2.0542,-4.05177 -1.80959,-3.85166 -3.4534,-2.82509 -1.15832,0.72338 -1.66465,0.70126 -3.15977,-0.13788 -0.97923,-0.54963 -2.08075,-1.60174 -2.44784,-2.33802 -0.36707,-0.7363 -1.18041,-1.85171 -1.8074,-2.47869 -0.62701,-0.62701 -1.13999,-1.75319 -1.13999,-2.50263 0,-0.74945 -0.73554,-2.32698 -1.63451,-3.50559 -0.89896,-1.17863 -1.63451,-2.46963 -1.63451,-2.8689 0,-0.39928 -0.73551,-1.51919 -1.63451,-2.4887 -0.89896,-0.9695 -1.63503,-2.05995 -1.63566,-2.42322 -10e-4,-0.75249 -5.3044,-4.25637 -6.44195,-4.25637 -0.41177,0 -0.74868,-0.2942 -0.74868,-0.6538 0,-0.35961 -0.44132,-0.65381 -0.9807,-0.65381 -1.54921,0 -1.15261,-1.22429 1.04759,-3.23387 2.57831,-2.3549 2.1437,-4.10843 -1.36626,-5.51286 -2.91803,-1.16755 -3.71069,-2.33569 -4.32405,-6.37223 -0.23896,-1.57331 -0.78417,-3.30186 -1.21132,-3.84123 -0.42718,-0.53942 -0.82657,-1.7959 -0.88756,-2.7922 -0.13837,-2.25855 -1.92193,-5.07484 -2.96146,-4.67593 -0.42794,0.16432 -1.58256,-0.9422 -2.56585,-2.45863 -1.87525,-2.89211 -2.37608,-5.43277 -0.97055,-4.92356 0.44949,0.16285 1.37492,-0.18039 2.05654,-0.76279 1.17726,-1.00585 1.20172,-0.98719 0.48857,0.37254 -0.57104,1.08879 -0.56391,1.54683 0.0297,1.9137 0.42925,0.26529 0.89831,0.12875 1.04236,-0.30347 0.14407,-0.43218 1.26471,-1.20479 2.49034,-1.71689 2.43146,-1.01592 2.88012,-2.13818 1.08425,-2.71213 -0.62929,-0.20115 -1.81206,-0.68609 -2.62842,-1.07773 -1.09503,-0.52532 -1.68651,-0.50978 -2.2556,0.0593 -1.15475,1.15478 -1.97222,0.95628 -4.39646,-1.06757 -2.02233,-1.68832 -2.22002,-2.18354 -2.4139,-6.04763 -0.12924,-2.57388 0.11812,-4.84368 0.63652,-5.84324 0.70143,-1.35246 0.69199,-1.87952 -0.0546,-3.0543 -0.73153,-1.150871 -0.75476,-1.912847 -0.12257,-4.022881 0.71222,-2.377135 0.65313,-2.736295 -0.68055,-4.137517 -0.80329,-0.843933 -1.90488,-2.196416 -2.44802,-3.00549 -0.54314,-0.809074 -1.3705,-1.471048 -1.83858,-1.471048 -0.46806,0 -0.94907,-0.285707 -1.06894,-0.634917 -0.30234,-0.880779 -8.118128,-1.901795 -15.772911,-2.060486 -3.52099,-0.07296 -6.541557,-0.358902 -6.712412,-0.635338 -0.799749,-1.294042 2.786318,-2.553462 7.270865,-2.553462 4.530393,0 14.098918,1.981464 15.605178,3.231527 0.52635,0.436855 1.20651,-0.339475 2.28187,-2.60452 1.69734,-3.575049 1.35157,-4.735589 -1.63413,-5.484938 -0.90876,-0.228076 -1.54883,-0.808481 -1.44423,-1.309561 0.1873,-0.897087 -2.456165,-3.639512 -3.508123,-3.639512 -0.304561,0 -0.553769,-0.534267 -0.553769,-1.187294 0,-0.653027 -0.98308,-2.057659 -2.184609,-3.121423 -1.201551,-1.063764 -2.304826,-2.221185 -2.451754,-2.572046 -0.147025,-0.350861 -2.292231,-1.667664 -4.76734,-2.926252 -4.383475,-2.228945 -4.570022,-2.427633 -7.19181,-7.661119 -1.480362,-2.955036 -2.994407,-5.38228 -3.364522,-5.393839 -0.370082,-0.0123 -1.097026,0.567379 -1.615375,1.286552 -1.117585,1.550588 -1.9614,1.691213 -1.9614,0.326924 0,-1.38459 -1.07106,-1.217243 -2.712013,0.42371 -1.135793,1.135792 -1.631045,1.262862 -2.589346,0.664391 -1.76117,-1.099865 -3.347124,-0.300007 -2.509256,1.26555 0.498857,0.93214 0.446913,1.242227 -0.208067,1.242227 -0.480122,0 -1.192755,-0.319779 -1.583623,-0.710648 -0.673641,-0.67364 -2.292944,0.223878 -4.231465,2.345158 -1.239486,1.356378 -5.780196,8.799598 -5.780196,9.475019 0,0.387685 -0.381933,1.356508 -0.848737,2.152955 -0.469329,0.800743 -0.834652,3.327007 -0.817254,5.651454 0.03486,4.652012 -0.512154,4.127016 5.790902,5.557883 2.596955,0.589514 7.427776,5.263046 8.380097,8.107266 0.441841,1.319566 0.74159,3.271523 0.666097,4.33764 -0.125775,1.775038 -3.599246,10.050945 -7.736287,18.432075 -0.91538,1.85441 -1.477103,3.67459 -1.248261,4.04486 0.764135,1.23636 4.474197,2.74334 5.228068,2.12352 0.395617,-0.32524 2.060097,-0.79091 3.698848,-1.0348 2.274813,-0.33853 3.175061,-0.20781 3.806028,0.55238 0.707464,0.85246 0.433423,1.11358 -1.903478,1.81373 -1.501439,0.44986 -2.87787,1.20348 -3.058708,1.67473 -0.18088,0.47126 -0.730214,0.85684 -1.220847,0.85684 -0.490655,0 -1.156158,0.95618 -1.478948,2.12484 -0.685696,2.48255 0.615609,4.04676 2.892246,3.47653 0.749122,-0.18755 2.514371,0.25356 3.922801,0.98045 1.760997,0.90885 3.224361,1.20122 4.685599,0.93615 1.591059,-0.28859 2.124862,-0.14925 2.124862,0.55496 0,1.41495 -1.833111,1.84419 -5.773181,1.35191 -2.830157,-0.35358 -3.486594,-0.26438 -3.251169,0.44187 0.162339,0.48671 0.999657,1.05129 1.860945,1.25461 1.522496,0.35942 1.507796,0.39376 -0.530533,1.23805 l -2.096468,0.8684 1.632427,1.28409 c 1.621559,1.2755 1.684792,2.72167 0.09217,2.11057 -1.479671,-0.5678 -5.319155,2.55143 -5.546217,4.50578 -0.430433,3.70465 4.609955,6.44706 11.813971,6.42786 1.694138,-0.005 2.451733,0.28262 2.451733,0.92921 0,1.26865 5.918403,1.25644 10.162938,-0.0198 1.748445,-0.52621 3.280556,-0.85513 3.404755,-0.73097 0.519266,0.51927 -0.732772,3.78266 -1.575324,4.10596 -1.519873,0.58325 -3.453203,5.68418 -3.387876,8.9387 0.03335,1.66466 0.317653,3.02663 0.631625,3.02663 0.314005,0 0.570897,0.31157 0.570897,0.69239 0,0.38081 -0.246369,0.5402 -0.54724,0.35418 -0.301,-0.18607 -1.22184,0.13418 -2.046359,0.71176 l -1.499097,1.05 1.556006,1.19651 c 0.970658,0.74638 1.207551,1.20197 0.629769,1.21104 -0.509402,0.008 -0.755274,0.18558 -0.546344,0.39441 0.209049,0.20905 1.025084,0.0346 1.813653,-0.38746 2.092809,-1.12004 3.120127,0.15889 1.513171,1.88371 -1.364937,1.46509 -2.006794,7.55741 -0.870203,8.25986 1.104538,0.68263 -0.506423,2.95683 -1.755093,2.47767 -0.677493,-0.25998 -0.917031,-0.15321 -0.644792,0.28724 0.403668,0.65315 -1.346061,1.94811 -6.577216,4.86771 -2.299591,1.28345 -4.138628,2.67677 -6.534639,4.95096 -0.852416,0.80907 -1.759939,1.47104 -2.01668,1.47104 -0.25674,0 -0.834274,0.58844 -1.283411,1.30761 -0.595061,0.95282 -1.524697,1.30761 -3.426275,1.30761 -1.435315,0 -2.609658,-0.22881 -2.609658,-0.50831 z m 97.416261,-9.95248 c 0,-0.35959 -0.31158,-0.65379 -0.6924,-0.65379 -0.38081,0 -0.51054,0.2942 -0.28829,0.65379 0.22215,0.35959 0.5338,0.65382 0.69238,0.65382 0.15865,0 0.28831,-0.29423 0.28831,-0.65382 z m -11.72542,-8.5224 c 0.73149,-0.3915 1.26461,-1.36442 1.26461,-2.30787 l 0,-1.63107 -1.95337,1.44419 c -1.07434,0.79429 -2.15987,1.23765 -2.41228,0.98523 -0.25243,-0.25245 0.18532,-0.91019 0.97265,-1.46168 1.95529,-1.36956 1.92791,-3.12806 -0.0395,-2.53367 -0.80907,0.24438 -1.69539,0.65042 -1.96955,0.90216 -0.834,0.76575 0.24969,4.53957 1.39079,4.84326 0.58801,0.15643 1.162,0.3187 1.27555,0.36041 0.11368,0.0418 0.77552,-0.22882 1.47105,-0.60096 z m -4.43124,-7.88797 c -1.5882,-0.57987 -2.80354,0.52817 -2.80354,2.55605 l 0,1.67676 1.98628,-1.90299 c 1.76159,-1.68773 1.85406,-1.95127 0.81726,-2.32982 z m -60.264434,-0.7764 c -0.533955,-0.53394 -0.727365,-0.46077 -0.727365,0.27513 0,1.29968 0.879181,2.17882 1.204076,1.2041 0.137884,-0.41353 -0.07663,-1.07919 -0.476711,-1.47923 z m -2.034973,-0.13888 c 0,-0.35958 -0.294201,-0.75186 -0.653793,-0.87173 -0.359582,-0.11985 -0.653782,0.27241 -0.653782,0.87173 0,0.59932 0.2942,0.9916 0.653782,0.87175 0.359592,-0.11985 0.653793,-0.51216 0.653793,-0.87175 z m -3.268987,-0.32689 c 0,-0.35959 -0.294223,-0.65381 -0.653815,-0.65381 -0.359581,0 -0.653793,0.29422 -0.653793,0.65381 0,0.35959 0.294212,0.65379 0.653793,0.65379 0.359592,0 0.653815,-0.2942 0.653815,-0.65379 z m 62.764854,-0.65381 c 0,-0.3596 -0.29423,-0.6538 -0.65382,-0.6538 -0.35959,0 -0.65379,0.2942 -0.65379,0.6538 0,0.35958 0.2942,0.65381 0.65379,0.65381 0.35959,0 0.65382,-0.29423 0.65382,-0.65381 z m -66.687656,-0.6538 c 0,-0.35959 -0.129725,-0.65379 -0.288319,-0.65379 -0.158638,0 -0.470139,0.2942 -0.692387,0.65379 -0.222151,0.3596 -0.09238,0.6538 0.288319,0.6538 0.38081,0 0.692387,-0.2942 0.692387,-0.6538 z m 53.611636,-21.24852 c 0,-0.54482 -0.58117,-0.98069 -1.3076,-0.98069 -1.30253,0 -1.70062,0.69664 -0.87173,1.52554 0.79628,0.79627 2.17933,0.45052 2.17933,-0.54485 z m -68.712952,-16.4644 c -0.445974,-0.83332 -1.381471,-1.51511 -2.078854,-1.51511 -1.055562,0 -1.193273,0.30122 -0.821896,1.79794 0.245376,0.98887 0.71858,1.89602 1.05158,2.0159 0.332999,0.11983 0.605464,0.72298 0.605464,1.34027 0,0.61732 0.367762,1.49355 0.817244,1.94724 0.65538,0.66148 0.858871,0.33996 1.027297,-1.62314 0.115651,-1.3464 -0.154936,-3.12979 -0.600835,-3.9631 z m -1.699944,-7.28288 c -0.503304,-7.65001 -0.451899,-9.55103 0.312548,-11.55797 0.41091,-1.07876 1.229147,-3.57954 1.818294,-5.55728 0.589179,-1.97777 1.628228,-4.750259 2.309013,-6.161139 0.680774,-1.41087 1.16626,-2.59743 1.078831,-2.636768 -0.08753,-0.03929 -0.673803,-0.465617 -1.303086,-0.947282 -0.919923,-0.704096 -1.337578,-0.715223 -2.131112,-0.05655 -0.611486,0.50748 -1.979489,0.685987 -3.59591,0.469178 -2.932027,-0.393264 -3.594497,0.59096 -0.810996,1.204864 2.935071,0.647339 3.204989,0.829882 1.307608,0.884373 -0.988865,0.02838 -1.797939,0.384544 -1.797939,0.791472 0,0.489716 -0.913253,0.617422 -2.700788,0.377658 l -2.7008,-0.362257 0.49698,5.016221 c 0.27335,2.75891 0.477261,5.53109 0.453119,6.16037 -0.02472,0.62927 0.266378,1.14415 0.645569,1.14415 0.37918,0 0.535627,0.58813 0.347645,1.30693 -0.188047,0.71883 -0.06745,1.47656 0.267986,1.6838 0.335353,0.20732 0.537117,0.72245 0.448328,1.14483 -0.20361,0.96823 1.5923,5.01765 2.225232,5.01765 0.259417,0 0.658811,1.4107 0.887535,3.13488 0.312386,2.35489 0.703654,3.15655 1.572529,3.22202 1.02571,0.0774 1.124158,-0.40723 0.869414,-4.27904 z M 56.585569,99.318787 c -0.22215,-0.359592 -0.09238,-0.653793 0.28833,-0.653793 0.38081,0 0.692387,0.294201 0.692387,0.653793 0,0.359581 -0.129735,0.653793 -0.28833,0.653793 -0.158637,0 -0.470139,-0.294212 -0.692387,-0.653793 z m 57.207541,13.152253 c 0,-0.78459 -2.52942,-1.39778 -2.95113,-0.7154 -0.18558,0.30011 0.32907,0.67373 1.14348,0.83027 0.81443,0.15643 1.55432,0.32468 1.64422,0.37366 0.0899,0.0489 0.16333,-0.17101 0.16333,-0.48853 z m -0.6538,-2.69146 c 0,-0.35959 -0.4413,-0.65379 -0.9807,-0.65379 -0.53938,0 -0.9807,0.2942 -0.9807,0.65379 0,0.3596 0.44132,0.65382 0.9807,0.65382 0.5394,0 0.9807,-0.29422 0.9807,-0.65382 z m -1.57519,-3.10073 c -0.45342,-0.45341 -1.69381,0.46782 -1.69381,1.25796 0,0.43356 0.37513,0.38393 0.9965,-0.1317 0.54808,-0.45484 0.86185,-0.96166 0.69731,-1.1262 z M 54.038475,92.304048 c -0.664585,-0.664597 -1.212958,0.335989 -0.667672,1.218279 0.411925,0.666495 0.565922,0.667013 0.787371,0.0022 0.151482,-0.454252 0.09756,-1.003672 -0.119591,-1.220923 z m 9.412014,-0.153458 c 0,-1.271086 -4.879873,-3.946372 -7.180123,-3.936368 -3.849489,0.01727 -4.406096,1.05962 -0.7939,1.48741 1.777801,0.210527 4.22568,0.988422 5.439729,1.728576 2.55181,1.555704 2.534294,1.550739 2.534294,0.720382 z m -1.452194,-4.763627 c -0.330183,-1.064336 -4.121177,-2.861207 -7.130607,-3.379836 -1.989817,-0.342907 -2.425021,-0.20485 -2.702936,0.858072 -0.290477,1.110743 0.12775,1.320095 3.394956,1.699275 2.049424,0.237962 4.148385,0.699607 4.664348,1.026109 1.325372,0.838678 2.071063,0.753105 1.774239,-0.20362 z m 47.218215,-1.875116 c 0,-0.359581 -0.2942,-0.471962 -0.65379,-0.249714 -0.35961,0.22214 -0.65381,0.698268 -0.65381,1.05785 0,0.359592 0.2942,0.471973 0.65381,0.249725 0.35959,-0.22214 0.65379,-0.698268 0.65379,-1.057861 z m -58.188252,0.07706 c 0,-0.359592 -0.129725,-0.653814 -0.288298,-0.653814 -0.158637,0 -0.47016,0.294222 -0.692386,0.653814 -0.222151,0.359592 -0.09238,0.653793 0.288297,0.653793 0.380821,0 0.692387,-0.294201 0.692387,-0.653793 z M 108.05067,81.66712 c -0.45564,-0.597079 -2.10317,2.190221 -2.10215,3.556389 6.7e-4,1.010147 0.29422,0.775002 1.17593,-0.94221 0.64617,-1.258556 1.063,-2.43495 0.92622,-2.614179 z m 3.78104,76.78197 c 0,-0.56061 0.29902,-0.8345 0.66446,-0.60863 0.36545,0.22586 0.4952,0.68453 0.28833,1.01929 -0.56046,0.90685 -0.95279,0.73776 -0.95279,-0.41066 z m 5.23041,-1.59594 c 0,-0.35959 0.31157,-0.65379 0.69239,-0.65379 0.38081,0 0.51055,0.2942 0.2883,0.65379 -0.22215,0.35962 -0.5338,0.65382 -0.6924,0.65382 -0.15863,0 -0.28829,-0.2942 -0.28829,-0.65382 z m 4.90349,-1.9614 c 0.22215,-0.35959 0.53383,-0.65379 0.69239,-0.65379 0.15865,0 0.28833,0.2942 0.28833,0.65379 0,0.35961 -0.31158,0.65382 -0.6924,0.65382 -0.38081,0 -0.51054,-0.29421 -0.28832,-0.65382 z m 4.01401,-4.37644 c -0.7363,-0.7363 -0.44844,-1.50776 0.56261,-1.50776 0.53938,0 0.9807,0.27686 0.9807,0.61522 0,0.82444 -1.02098,1.41489 -1.54331,0.89254 z m -12.45316,-9.10525 c -0.32342,-0.84281 -0.10382,-0.97834 1.07419,-0.66274 0.81442,0.21819 1.7188,0.40081 2.00971,0.4057 0.29092,0.005 0.34709,0.30315 0.12479,0.66274 -0.63714,1.03087 -2.76054,0.76242 -3.20877,-0.4057 z m 0.19496,-5.96887 c -0.38887,-2.66026 -0.32642,-4.8209 0.14777,-5.11397 0.31775,-0.19645 0.57773,0.98427 0.57773,2.62365 0,1.63936 -0.14702,2.98069 -0.32691,2.98069 -0.1799,0 -0.35915,-0.22068 -0.39856,-0.49037 z m 3.70167,-0.32689 c -0.78369,-2.5438 -0.9982,-4.48008 -0.45944,-4.1471 0.33428,0.20658 0.72829,1.40809 0.87562,2.66998 0.26731,2.28985 0.0605,3.0242 -0.41618,1.47712 z M 88.785249,98.226606 c -0.629283,-0.171243 -1.180915,-0.731109 -1.225866,-1.244126 -0.045,-0.513039 -0.118608,-1.287275 -0.163343,-1.720547 -0.045,-0.433272 -0.817244,-0.971813 -1.716219,-1.196781 -1.600481,-0.400484 -1.591416,-0.418918 0.435646,-0.886639 2.258549,-0.521144 6.867758,0.459368 9.207897,1.958778 1.878278,1.203483 1.933114,2.454776 0.08181,1.867205 -0.76407,-0.242408 -1.576112,-0.138628 -1.804511,0.231044 -0.516946,0.836454 -3.287971,1.406779 -4.815323,0.99112 z m -8.98976,-1.538576 c 0,-0.517636 2.925616,-2.599728 3.65297,-2.599728 0.236472,0 0.102312,0.394829 -0.298237,0.877401 -0.400506,0.482571 -0.571253,1.034333 -0.37945,1.226136 0.191748,0.191759 -0.399201,0.491691 -1.313296,0.66642 -0.914095,0.174707 -1.661987,0.0981 -1.661987,-0.17025 z"
           inkscape:connector-curvature="0" />
      </g>
    </g>
  </g>
</svg>
